<?xml version="1.0" encoding="UTF-8"?>
<svg version="1.1" xmlns="http://www.w3.org/2000/svg" width="450" height="383">
<path d="M0 0 C2.60545703 2.18858391 3.87402988 3.42182946 4.609375 6.796875 C4.65578125 7.77140625 4.7021875 8.7459375 4.75 9.75 C4.80671875 10.73484375 4.8634375 11.7196875 4.921875 12.734375 C4.94765625 13.48203125 4.9734375 14.2296875 5 15 C-0.62470514 18.06802099 -5.69403048 19.89061647 -12 21 C-12 21.66 -12 22.32 -12 23 C-13.051875 23.433125 -14.10375 23.86625 -15.1875 24.3125 C-19.16214448 26.01935338 -22.72714858 27.98920622 -26.125 30.6875 C-28 32 -28 32 -31 32 C-31.2475 32.5775 -31.495 33.155 -31.75 33.75 C-33.69381593 37.24886868 -35.9951015 39.44730582 -39.5 41.375 C-42.62775041 43.40803777 -43.99931166 45.89548361 -46 49 C-46.66 49 -47.32 49 -48 49 C-48 49.66 -48 50.32 -48 51 C-48.66 51 -49.32 51 -50 51 C-50 51.66 -50 52.32 -50 53 C-50.66 53 -51.32 53 -52 53 C-52 53.99 -52 54.98 -52 56 C-52.66 56 -53.32 56 -54 56 C-54 56.99 -54 57.98 -54 59 C-54.99 59.495 -54.99 59.495 -56 60 C-56.33 60.99 -56.66 61.98 -57 63 C-57.66 63 -58.32 63 -59 63 C-59.17015625 63.8353125 -59.17015625 63.8353125 -59.34375 64.6875 C-60.34831291 68.22738834 -62.14048059 71.31440485 -63.84375 74.5625 C-64.8720798 76.73033039 -65.52311217 78.65891431 -66 81 C-66.66 81 -67.32 81 -68 81 C-68.103125 81.99 -68.20625 82.98 -68.3125 84 C-68.70000931 86.80803849 -69.39619646 89.14394676 -70.5 91.75 C-72.23330971 96.03278953 -72.52425353 100.19362661 -72.7890625 104.77734375 C-73 107 -73 107 -74 108 C-74.15786308 109.85174706 -74.25107356 111.7090911 -74.31640625 113.56640625 C-74.35830078 114.69111328 -74.40019531 115.81582031 -74.44335938 116.97460938 C-74.48267578 118.15861328 -74.52199219 119.34261719 -74.5625 120.5625 C-74.60568359 121.75037109 -74.64886719 122.93824219 -74.69335938 124.16210938 C-74.79983546 127.10794784 -74.90184841 130.0538743 -75 133 C-74.34 133 -73.68 133 -73 133 C-72.95101562 133.79664063 -72.90203125 134.59328125 -72.8515625 135.4140625 C-72.46230282 140.93081173 -72.00085372 145.79778033 -70 151 C-70 151.99 -70 152.98 -70 154 C-69.34 154 -68.68 154 -68 154 C-68 155.98 -68 157.96 -68 160 C-67.34 160 -66.68 160 -66 160 C-66 161.65 -66 163.3 -66 165 C-65.34 165 -64.68 165 -64 165 C-63.67 166.65 -63.34 168.3 -63 170 C-62.34 170 -61.68 170 -61 170 C-61 171.32 -61 172.64 -61 174 C-60.34 174 -59.68 174 -59 174 C-58.66226563 174.63808594 -58.32453125 175.27617187 -57.9765625 175.93359375 C-57.53054687 176.75988281 -57.08453125 177.58617187 -56.625 178.4375 C-56.18414062 179.26121094 -55.74328125 180.08492187 -55.2890625 180.93359375 C-54.16581441 183.13466578 -54.16581441 183.13466578 -52 184 C-52 184.99 -52 185.98 -52 187 C-51.34 187 -50.68 187 -50 187 C-49.67 187.99 -49.34 188.98 -49 190 C-48.34 190.33 -47.68 190.66 -47 191 C-47 191.66 -47 192.32 -47 193 C-46.34 193 -45.68 193 -45 193 C-45 193.99 -45 194.98 -45 196 C-44.01 196.33 -43.02 196.66 -42 197 C-42.41317222 201.82034262 -44.38019915 203.90992611 -48 207 C-48.66 207 -49.32 207 -50 207 C-50 207.99 -50 208.98 -50 210 C-54 210 -54 210 -55.921875 208.3203125 C-56.52515625 207.59585938 -57.1284375 206.87140625 -57.75 206.125 C-58.36359375 205.40570313 -58.9771875 204.68640625 -59.609375 203.9453125 C-61 202 -61 202 -61 200 C-61.66 200 -62.32 200 -63 200 C-64.44963959 198.09625645 -65.81184323 196.12532841 -67.125 194.125 C-68.21167969 192.48917969 -68.21167969 192.48917969 -69.3203125 190.8203125 C-71 188 -71 188 -71 186 C-71.66 186 -72.32 186 -73 186 C-90.57675022 152.85399642 -95.84508228 118.4426086 -85 82 C-80.8256665 68.76019476 -74.25587963 56.75347423 -66.125 45.5625 C-65.64853027 44.90523926 -65.17206055 44.24797852 -64.68115234 43.57080078 C-63.50839757 42.00502378 -62.26049861 40.49604633 -61 39 C-60.34 39 -59.68 39 -59 39 C-58.61908203 38.13568359 -58.61908203 38.13568359 -58.23046875 37.25390625 C-47.91189115 18.35289268 -19.48568061 6.03960737 0 0 Z " fill="#1166A2" transform="translate(180,47)"/>
<path d="M0 0 C0.92619141 0.53753906 0.92619141 0.53753906 1.87109375 1.0859375 C3.5625 2.125 3.5625 2.125 6 4 C6 4.66 6 5.32 6 6 C6.66 6 7.32 6 8 6 C8 6.66 8 7.32 8 8 C8.66 8 9.32 8 10 8 C15.352251 17.44608584 17.48200714 25.05784731 16 36 C15.00837531 39.25950707 13.64525209 42.03374258 12 45 C11.71125 45.83144531 11.4225 46.66289063 11.125 47.51953125 C8.13245402 54.11767951 -0.47423378 58.40087256 -7 61 C-16.05772936 63.74867958 -25.65503271 62.16692774 -34 58 C-41.25749786 52.73906276 -47.77072243 46.51984447 -49.6796875 37.4609375 C-51.09551249 26.58325769 -50.63656017 17.28531733 -44.01171875 8.3046875 C-33.30932746 -4.37552049 -14.71817271 -9.18713965 0 0 Z " fill="#0491C5" transform="translate(248,20)"/>
<path d="M0 0 C1.26972656 0.07863281 2.53945313 0.15726563 3.84765625 0.23828125 C4.86730469 0.38652344 5.88695312 0.53476563 6.9375 0.6875 C8.29869392 3.40988784 7.69879827 4.78072479 6.9375 7.6875 C5.875 10 5.875 10 4.9375 11.6875 C4.2775 11.6875 3.6175 11.6875 2.9375 11.6875 C2.751875 12.55375 2.751875 12.55375 2.5625 13.4375 C1.93101176 15.71085767 1.04891809 17.6128529 -0.0625 19.6875 C-0.7225 19.6875 -1.3825 19.6875 -2.0625 19.6875 C-2.0625 20.3475 -2.0625 21.0075 -2.0625 21.6875 C-2.7225 21.6875 -3.3825 21.6875 -4.0625 21.6875 C-4.3925 23.3375 -4.7225 24.9875 -5.0625 26.6875 C-5.7225 26.6875 -6.3825 26.6875 -7.0625 26.6875 C-7.0625 27.3475 -7.0625 28.0075 -7.0625 28.6875 C-7.7225 28.6875 -8.3825 28.6875 -9.0625 28.6875 C-9.330625 29.43 -9.59875 30.1725 -9.875 30.9375 C-11.01526751 33.57811949 -12.15630306 35.54302844 -14.0625 37.6875 C-14.7225 37.6875 -15.3825 37.6875 -16.0625 37.6875 C-16.3925 38.6775 -16.7225 39.6675 -17.0625 40.6875 C-17.7225 40.6875 -18.3825 40.6875 -19.0625 40.6875 C-19.0625 41.3475 -19.0625 42.0075 -19.0625 42.6875 C-20.70703125 44.16015625 -20.70703125 44.16015625 -22.875 45.75 C-23.93654297 46.54083984 -23.93654297 46.54083984 -25.01953125 47.34765625 C-27.0625 48.6875 -27.0625 48.6875 -30.0625 49.6875 C-30.3925 50.6775 -30.7225 51.6675 -31.0625 52.6875 C-34.125 53.875 -34.125 53.875 -37.0625 54.6875 C-37.0625 55.3475 -37.0625 56.0075 -37.0625 56.6875 C-38.3825 56.6875 -39.7025 56.6875 -41.0625 56.6875 C-41.0625 57.3475 -41.0625 58.0075 -41.0625 58.6875 C-51.4140625 63.86328125 -51.4140625 63.86328125 -53.2800293 64.78979492 C-54.90627835 65.60882215 -56.51480301 66.46280352 -58.12109375 67.3203125 C-61.24518433 68.77241303 -64.13281869 69.54260897 -67.5 70.25 C-70.96069465 71.00164409 -74.34563367 71.76908089 -77.75 72.75 C-87.30463652 75.45414241 -96.26066304 75.99606541 -106.1875 75.9375 C-107.50621094 75.94523437 -108.82492188 75.95296875 -110.18359375 75.9609375 C-116.85753805 75.94752254 -122.68524068 75.65694773 -129.0625 73.6875 C-131.10356888 73.24721956 -133.14521114 72.80958627 -135.1875 72.375 C-153.59465099 68.15534901 -153.59465099 68.15534901 -158.0625 63.6875 C-158.1875 61.0625 -158.1875 61.0625 -158.0625 58.6875 C-157.4025 58.6875 -156.7425 58.6875 -156.0625 58.6875 C-155.876875 57.8521875 -155.876875 57.8521875 -155.6875 57 C-155.00273145 54.46635636 -154.07116237 52.10828968 -153.0625 49.6875 C-151.0825 49.6875 -149.1025 49.6875 -147.0625 49.6875 C-147.0625 50.3475 -147.0625 51.0075 -147.0625 51.6875 C-145.4125 51.6875 -143.7625 51.6875 -142.0625 51.6875 C-142.0625 52.3475 -142.0625 53.0075 -142.0625 53.6875 C-140.928125 53.831875 -139.79375 53.97625 -138.625 54.125 C-135.0625 54.6875 -135.0625 54.6875 -134.0625 55.6875 C-112.63862719 61.62831531 -87.38254457 60.96485861 -67.0625 51.6875 C-63.61714516 50.15445064 -61.9492808 49.6875 -58.0625 49.6875 C-58.0625 49.0275 -58.0625 48.3675 -58.0625 47.6875 C-52.4375 44.6875 -52.4375 44.6875 -49.0625 44.6875 C-49.0625 44.0275 -49.0625 43.3675 -49.0625 42.6875 C-42.4375 38.8125 -42.4375 38.8125 -39.0625 37.6875 C-39.0625 37.0275 -39.0625 36.3675 -39.0625 35.6875 C-38.4025 35.6875 -37.7425 35.6875 -37.0625 35.6875 C-37.0625 35.0275 -37.0625 34.3675 -37.0625 33.6875 C-34.5010343 31.39101351 -33.58282428 30.6875 -30.0625 30.6875 C-29.69125 29.82125 -29.69125 29.82125 -29.3125 28.9375 C-27.89650344 26.38870619 -26.11526785 24.74026785 -24.0625 22.6875 C-23.7325 21.6975 -23.4025 20.7075 -23.0625 19.6875 C-22.4025 19.6875 -21.7425 19.6875 -21.0625 19.6875 C-20.7325 18.6975 -20.4025 17.7075 -20.0625 16.6875 C-19.4025 16.6875 -18.7425 16.6875 -18.0625 16.6875 C-17.4025 14.7075 -16.7425 12.7275 -16.0625 10.6875 C-15.4025 10.6875 -14.7425 10.6875 -14.0625 10.6875 C-14.0625 9.6975 -14.0625 8.7075 -14.0625 7.6875 C-13.4025 7.6875 -12.7425 7.6875 -12.0625 7.6875 C-11.7325 6.0375 -11.4025 4.3875 -11.0625 2.6875 C-10.4025 2.6875 -9.7425 2.6875 -9.0625 2.6875 C-9.0625 2.0275 -9.0625 1.3675 -9.0625 0.6875 C-6.02838424 -0.82955788 -3.35333483 -0.22855894 0 0 Z " fill="#1B4486" transform="translate(319.0625,216.3125)"/>
<path d="M0 0 C3.3 0.33 6.6 0.66 10 1 C10.78439648 4.4664738 11.12621586 7.66617292 11.12939453 11.2175293 C11.13254669 12.23175461 11.13569885 13.24597992 11.13894653 14.29093933 C11.1369223 15.37442154 11.13489807 16.45790375 11.1328125 17.57421875 C11.13376923 18.69439896 11.13472595 19.81457916 11.13571167 20.96870422 C11.13639113 23.33143164 11.13455319 25.69416095 11.13037109 28.05688477 C11.12500451 31.6844498 11.13033177 35.31189186 11.13671875 38.93945312 C11.13605822 41.23437527 11.13477759 43.52929735 11.1328125 45.82421875 C11.13483673 46.91377365 11.13686096 48.00332855 11.13894653 49.12590027 C11.13421829 50.63305351 11.13421829 50.63305351 11.12939453 52.1706543 C11.12859894 53.05714157 11.12780334 53.94362885 11.12698364 54.85697937 C11 57 11 57 10 59 C6.7 59 3.4 59 0 59 C0 58.34 0 57.68 0 57 C-0.66 57 -1.32 57 -2 57 C-2 56.01 -2 55.02 -2 54 C-2.66 54 -3.32 54 -4 54 C-4 52.68 -4 51.36 -4 50 C-4.99 49.67 -5.98 49.34 -7 49 C-7 48.34 -7 47.68 -7 47 C-7.66 47 -8.32 47 -9 47 C-9 46.34 -9 45.68 -9 45 C-9.66 45 -10.32 45 -11 45 C-13.29648649 42.4385343 -14 41.52032428 -14 38 C-14.66 38 -15.32 38 -16 38 C-16.66 36.35 -17.32 34.7 -18 33 C-18.66 33 -19.32 33 -20 33 C-20.33 31.68 -20.66 30.36 -21 29 C-21.66 29 -22.32 29 -23 29 C-23 28.01 -23 27.02 -23 26 C-23.66 26 -24.32 26 -25 26 C-25 36.89 -25 47.78 -25 59 C-28.96 59 -32.92 59 -37 59 C-37 40.19 -37 21.38 -37 2 C-27 2 -27 2 -25 3 C-25 3.66 -25 4.32 -25 5 C-24.34 5 -23.68 5 -23 5 C-20 9.38461538 -20 9.38461538 -20 12 C-19.34 12 -18.68 12 -18 12 C-18 12.66 -18 13.32 -18 14 C-17.34 14 -16.68 14 -16 14 C-13.70351351 16.5614657 -13 17.47967572 -13 21 C-12.34 21 -11.68 21 -11 21 C-11 21.66 -11 22.32 -11 23 C-10.34 23 -9.68 23 -9 23 C-9 23.99 -9 24.98 -9 26 C-8.01 26.33 -7.02 26.66 -6 27 C-5.34 27.33 -4.68 27.66 -4 28 C-3.505 29.98 -3.505 29.98 -3 32 C-2.67 22.1 -2.34 12.2 -2 2 C-1.34 2 -0.68 2 0 2 C0 1.34 0 0.68 0 0 Z " fill="#020202" transform="translate(244,142)"/>
<path d="M0 0 C0 1.65 0 3.3 0 5 C0.66 5 1.32 5 2 5 C2.12375 5.969375 2.2475 6.93875 2.375 7.9375 C2.58125 8.948125 2.7875 9.95875 3 11 C3.66 11.33 4.32 11.66 5 12 C4.67 12.66 4.34 13.32 4 14 C4.99 14.33 5.98 14.66 7 15 C7 16.32 7 17.64 7 19 C7.66 19 8.32 19 9 19 C9 19.66 9 20.32 9 21 C9.66 21 10.32 21 11 21 C11 21.66 11 22.32 11 23 C11.99 23.33 12.98 23.66 14 24 C14 24.66 14 25.32 14 26 C14.66 26 15.32 26 16 26 C16 26.66 16 27.32 16 28 C16.99 28.33 17.98 28.66 19 29 C20.77876049 30.22160813 22.47373321 31.52788417 24.18359375 32.84375 C26.12007456 34.07643456 27.75894832 34.56656583 30 35 C30 35.66 30 36.32 30 37 C31.134375 37.144375 32.26875 37.28875 33.4375 37.4375 C37 38 37 38 38 39 C45.1290181 40.71647712 52.88701443 42.37099519 60 40 C62.6013982 39.46808471 65.20966397 38.98429422 67.8203125 38.5 C69.96618492 38.21085132 69.96618492 38.21085132 71 37 C72.66617115 36.95936168 74.33388095 36.957279 76 37 C76.495 39.475 76.495 39.475 77 42 C77.66 42 78.32 42 79 42 C79 43.65 79 45.3 79 47 C79.66 47.33 80.32 47.66 81 48 C81 49.32 81 50.64 81 52 C73.28766172 54.8938093 66.2421451 56.73255576 58 57 C57.16726562 57.02835938 56.33453125 57.05671875 55.4765625 57.0859375 C52.9781466 57.12534469 50.49727389 57.08155949 48 57 C46.74123047 56.97486328 46.74123047 56.97486328 45.45703125 56.94921875 C36.01196807 56.46092154 26.32381355 53.48526294 18 49 C18 48.34 18 47.68 18 47 C16.35 46.67 14.7 46.34 13 46 C13 45.34 13 44.68 13 44 C12.29875 43.773125 11.5975 43.54625 10.875 43.3125 C7.25871465 41.66158712 4.91230024 39.7091165 2 37 C2 36.34 2 35.68 2 35 C1.34 35 0.68 35 0 35 C-1.75457396 32.78307209 -3.39006763 30.56830261 -5 28.25 C-5.45117188 27.61578125 -5.90234375 26.9815625 -6.3671875 26.328125 C-12 18.32886464 -12 18.32886464 -12 14 C-12.66 14 -13.32 14 -14 14 C-14.99 10.7 -15.98 7.4 -17 4 C-14.42233201 1.42233201 -12.54119318 1.51642401 -9 1 C-6.04335481 -0.4783226 -3.25770263 -0.06032783 0 0 Z " fill="#165494" transform="translate(161,182)"/>
<path d="M0 0 C2.89529918 0.26933016 5.0235097 1.12550158 7.6875 2.25 C7.71255615 3.28406982 7.7376123 4.31813965 7.76342773 5.38354492 C7.8578343 9.23213387 7.95797291 13.08055629 8.05981445 16.92895508 C8.10303784 18.59232681 8.14472146 20.25573932 8.18481445 21.91918945 C8.24282332 24.31474068 8.30642829 26.71008908 8.37109375 29.10546875 C8.38780624 29.8452446 8.40451874 30.58502045 8.42173767 31.34721375 C8.5282276 35.08645932 8.80937752 38.60938544 9.6875 42.25 C10.3475 42.25 11.0075 42.25 11.6875 42.25 C13.3125 43.625 13.3125 43.625 14.6875 45.25 C14.6875 45.91 14.6875 46.57 14.6875 47.25 C16.0075 47.25 17.3275 47.25 18.6875 47.25 C18.6875 47.91 18.6875 48.57 18.6875 49.25 C20.3375 49.25 21.9875 49.25 23.6875 49.25 C24.0175 48.59 24.3475 47.93 24.6875 47.25 C26.0075 47.25 27.3275 47.25 28.6875 47.25 C29.3475 45.6 30.0075 43.95 30.6875 42.25 C31.3475 42.25 32.0075 42.25 32.6875 42.25 C33.0175 29.05 33.3475 15.85 33.6875 2.25 C37.9775 2.25 42.2675 2.25 46.6875 2.25 C46.73727792 7.49697519 46.7733971 12.7438101 46.79736328 17.9909668 C46.80736411 19.77256671 46.82096916 21.55415044 46.83837891 23.33569336 C46.86288957 25.91003433 46.87404248 28.48415657 46.8828125 31.05859375 C46.89313507 31.84334579 46.90345764 32.62809784 46.91409302 33.43663025 C46.91518621 38.9372977 46.07899868 43.9325541 44.6875 49.25 C44.0275 49.25 43.3675 49.25 42.6875 49.25 C42.6875 50.24 42.6875 51.23 42.6875 52.25 C42.0275 52.25 41.3675 52.25 40.6875 52.25 C40.6875 52.91 40.6875 53.57 40.6875 54.25 C36.77406763 58.07025541 34.30675626 59.84862455 28.6875 60.25 C28.6875 60.58 28.6875 60.91 28.6875 61.25 C24.0675 61.25 19.4475 61.25 14.6875 61.25 C14.6875 60.59 14.6875 59.93 14.6875 59.25 C13.32625 59.311875 13.32625 59.311875 11.9375 59.375 C8.79109074 59.25398426 7.26593802 58.96895868 4.6875 57.25 C4.3575 56.59 4.0275 55.93 3.6875 55.25 C2.6975 54.92 1.7075 54.59 0.6875 54.25 C-1.77802067 50.87132353 -2.3125 49.54441798 -2.3125 45.25 C-2.9725 45.25 -3.6325 45.25 -4.3125 45.25 C-4.36184154 39.16277254 -4.39819167 33.0756608 -4.42236328 26.98828125 C-4.43243712 24.91632053 -4.44609666 22.84437407 -4.46337891 20.77246094 C-4.48756664 17.79879236 -4.49896908 14.8253113 -4.5078125 11.8515625 C-4.51813507 10.92131256 -4.52845764 9.99106262 -4.53909302 9.03262329 C-4.53924408 8.17188202 -4.53939514 7.31114075 -4.53955078 6.42431641 C-4.543992 5.66486725 -4.54843323 4.90541809 -4.55300903 4.12295532 C-4.16409049 1.09426638 -2.93820492 0.31764378 0 0 Z " fill="#020202" transform="translate(286.3125,141.75)"/>
<path d="M0 0 C1 1 1 1 1.0625 3.5625 C1.041875 4.366875 1.02125 5.17125 1 6 C0.34 6 -0.32 6 -1 6 C-1 7.65 -1 9.3 -1 11 C-1.66 11 -2.32 11 -3 11 C-3.33 12.32 -3.66 13.64 -4 15 C-6.97584223 14.5847662 -9.61964103 14.16133269 -12.39501953 12.98413086 C-23.31760168 8.8577083 -39.13972234 11.24327782 -49.74609375 15.35546875 C-54.18527476 17.59904042 -58.06325352 20.30227228 -61.92578125 23.42578125 C-64 25 -64 25 -66 25 C-66 25.99 -66 26.98 -66 28 C-67.31787285 29.02028865 -68.65210653 30.01971384 -70 31 C-70.33 31.99 -70.66 32.98 -71 34 C-71.66 34 -72.32 34 -73 34 C-73 34.99 -73 35.98 -73 37 C-73.99 37.495 -73.99 37.495 -75 38 C-75.90343684 39.88263881 -75.90343684 39.88263881 -76.625 42.0625 C-76.88539063 42.79597656 -77.14578125 43.52945313 -77.4140625 44.28515625 C-77.60742188 44.85105469 -77.80078125 45.41695312 -78 46 C-83.76044212 45.39363767 -88.72014369 43.24341721 -94 41 C-92.52840671 35.86541905 -90.24672098 31.65314066 -87.5 27.125 C-87.09652344 26.43664062 -86.69304687 25.74828125 -86.27734375 25.0390625 C-85.24494852 23.32181102 -84.12888572 21.65541825 -83 20 C-82.34 20 -81.68 20 -81 20 C-81 19.34 -81 18.68 -81 18 C-80.34 18 -79.68 18 -79 18 C-78.7525 17.401875 -78.505 16.80375 -78.25 16.1875 C-76.81927475 13.68373081 -75.4308418 12.51927612 -73 11 C-72.34 11 -71.68 11 -71 11 C-71 10.34 -71 9.68 -71 9 C-68.4385343 6.70351351 -67.52032428 6 -64 6 C-64 5.34 -64 4.68 -64 4 C-42.74155872 -5.98306741 -22.18098646 -8.39354947 0 0 Z " fill="#0E7BB1" transform="translate(241,101)"/>
<path d="M0 0 C2.31 0.33 4.62 0.66 7 1 C8.15136852 5.60547409 8 8.93994143 8 14 C-1.9 14 -11.8 14 -22 14 C-21.67 17.96 -21.34 21.92 -21 26 C-12.09 26 -3.18 26 6 26 C6 29.96 6 33.92 6 38 C-3.24 38 -12.48 38 -22 38 C-22 44.93 -22 51.86 -22 59 C-25.96 59 -29.92 59 -34 59 C-34.33 40.52 -34.66 22.04 -35 3 C-29.39746712 1.39927632 -26.66629712 0.77113838 -21.19140625 1.0234375 C-19.33032227 1.10078125 -19.33032227 1.10078125 -17.43164062 1.1796875 C-16.15482422 1.24414062 -14.87800781 1.30859375 -13.5625 1.375 C-11.60666992 1.46007812 -11.60666992 1.46007812 -9.61132812 1.546875 C-6.40694776 1.68772688 -3.2034249 1.83908141 0 2 C0 1.34 0 0.68 0 0 Z " fill="#020202" transform="translate(400,142)"/>
<path d="M0 0 C2.0625 -0.375 2.0625 -0.375 5 0 C6.96392726 1.40340725 8.68936087 2.93924534 10.44921875 4.58984375 C11.96326593 6.09449391 11.96326593 6.09449391 14 7 C14 7.66 14 8.32 14 9 C14.57363281 9.25910156 15.14726562 9.51820312 15.73828125 9.78515625 C18.18972216 11.10190603 20.09234822 12.60964713 22.1875 14.4375 C23.22970703 15.33275391 23.22970703 15.33275391 24.29296875 16.24609375 C26 18 26 18 27 21 C27.99 21.33 28.98 21.66 30 22 C31.60546875 23.77734375 31.60546875 23.77734375 33.1875 25.9375 C33.71730469 26.64777344 34.24710937 27.35804687 34.79296875 28.08984375 C36 30 36 30 36 32 C36.66 32 37.32 32 38 32 C38.495 34.475 38.495 34.475 39 37 C39.66 37 40.32 37 41 37 C42.2890625 38.609375 42.2890625 38.609375 43.625 40.75 C44.07101562 41.44609375 44.51703125 42.1421875 44.9765625 42.859375 C46 45 46 45 46 49 C46.66 49 47.32 49 48 49 C48.8394882 51.10171867 49.67139656 53.20646625 50.5 55.3125 C50.9640625 56.48425781 51.428125 57.65601563 51.90625 58.86328125 C53 62 53 62 53 65 C50.39421134 64.91304042 47.7918721 64.80618592 45.1875 64.6875 C44.44951172 64.66494141 43.71152344 64.64238281 42.95117188 64.61914062 C37.48491246 64.34706436 37.48491246 64.34706436 35.0625 62.61328125 C32.97657829 59.44605454 32 56.7960273 32 53 C31.01 52.505 31.01 52.505 30 52 C29.06055046 50.35596331 28.12546661 48.70918878 27.21875 47.046875 C25.4474784 44.07204705 23.32175773 41.40785813 21.171875 38.69921875 C20 37 20 37 20 35 C19.34 35 18.68 35 18 35 C17.773125 34.21625 17.54625 33.4325 17.3125 32.625 C15.63487438 29.26974877 14.40253565 29.34518851 11 28 C9.17259221 26.10993822 7.62977744 24.07025783 6 22 C5.34 21.67 4.68 21.34 4 21 C4 20.34 4 19.68 4 19 C2.68 18.67 1.36 18.34 0 18 C0 17.34 0 16.68 0 16 C-0.99 16 -1.98 16 -3 16 C-3 15.34 -3 14.68 -3 14 C-3.99 13.67 -4.98 13.34 -6 13 C-5.37240135 10.07120629 -4.41377341 7.63904371 -3 5 C-2.34 5 -1.68 5 -1 5 C-0.67 3.35 -0.34 1.7 0 0 Z " fill="#0B80B7" transform="translate(278,63)"/>
<path d="M0 0 C1.26972656 0.07863281 2.53945313 0.15726563 3.84765625 0.23828125 C4.86730469 0.38652344 5.88695312 0.53476563 6.9375 0.6875 C8.29869392 3.40988784 7.69879827 4.78072479 6.9375 7.6875 C5.875 10 5.875 10 4.9375 11.6875 C4.2775 11.6875 3.6175 11.6875 2.9375 11.6875 C2.751875 12.55375 2.751875 12.55375 2.5625 13.4375 C1.93101176 15.71085767 1.04891809 17.6128529 -0.0625 19.6875 C-0.7225 19.6875 -1.3825 19.6875 -2.0625 19.6875 C-2.0625 20.3475 -2.0625 21.0075 -2.0625 21.6875 C-2.7225 21.6875 -3.3825 21.6875 -4.0625 21.6875 C-4.5575 24.1625 -4.5575 24.1625 -5.0625 26.6875 C-5.7225 26.6875 -6.3825 26.6875 -7.0625 26.6875 C-7.0625 27.3475 -7.0625 28.0075 -7.0625 28.6875 C-7.7225 28.6875 -8.3825 28.6875 -9.0625 28.6875 C-9.330625 29.43 -9.59875 30.1725 -9.875 30.9375 C-11.01526751 33.57811949 -12.15630306 35.54302844 -14.0625 37.6875 C-14.7225 37.6875 -15.3825 37.6875 -16.0625 37.6875 C-16.3925 38.6775 -16.7225 39.6675 -17.0625 40.6875 C-17.7225 40.6875 -18.3825 40.6875 -19.0625 40.6875 C-19.0625 41.3475 -19.0625 42.0075 -19.0625 42.6875 C-22.58108133 45.94244123 -26.21659462 48.24696315 -31.0625 48.6875 C-31.3925 49.6775 -31.7225 50.6675 -32.0625 51.6875 C-33.68754131 52.12761536 -35.31514099 52.56002833 -36.953125 52.94921875 C-40.386086 54.1507551 -43.1288255 56.31289171 -46.046875 58.4453125 C-48.7652107 60.1205659 -50.91218249 59.6875 -54.0625 59.6875 C-54.18625 58.759375 -54.18625 58.759375 -54.3125 57.8125 C-54.87508459 55.50312433 -54.87508459 55.50312433 -57.125 54.4375 C-57.764375 54.19 -58.40375 53.9425 -59.0625 53.6875 C-55.01378552 47.92114908 -55.01378552 47.92114908 -50.5 46.8125 C-48.02212094 46.72239531 -45.54201678 46.6875 -43.0625 46.6875 C-43.3925 45.3675 -43.7225 44.0475 -44.0625 42.6875 C-41.5875 42.1925 -41.5875 42.1925 -39.0625 41.6875 C-38.815 40.429375 -38.5675 39.17125 -38.3125 37.875 C-37.59345494 34.99372016 -37.23608427 33.86668376 -35.125 31.6875 C-33.0625 30.6875 -33.0625 30.6875 -30.0625 30.6875 C-29.815 30.11 -29.5675 29.5325 -29.3125 28.9375 C-27.89650344 26.38870619 -26.11526785 24.74026785 -24.0625 22.6875 C-23.5675 21.2025 -23.5675 21.2025 -23.0625 19.6875 C-22.4025 19.6875 -21.7425 19.6875 -21.0625 19.6875 C-20.5675 18.2025 -20.5675 18.2025 -20.0625 16.6875 C-19.4025 16.6875 -18.7425 16.6875 -18.0625 16.6875 C-17.4025 14.7075 -16.7425 12.7275 -16.0625 10.6875 C-15.4025 10.6875 -14.7425 10.6875 -14.0625 10.6875 C-14.0625 9.6975 -14.0625 8.7075 -14.0625 7.6875 C-13.4025 7.6875 -12.7425 7.6875 -12.0625 7.6875 C-11.7325 6.0375 -11.4025 4.3875 -11.0625 2.6875 C-10.4025 2.6875 -9.7425 2.6875 -9.0625 2.6875 C-9.0625 2.0275 -9.0625 1.3675 -9.0625 0.6875 C-6.02838424 -0.82955788 -3.35333483 -0.22855894 0 0 Z " fill="#184F91" transform="translate(319.0625,216.3125)"/>
<path d="M0 0 C0.33 1.32 0.66 2.64 1 4 C0.34 4 -0.32 4 -1 4 C-1.144375 5.010625 -1.28875 6.02125 -1.4375 7.0625 C-1.95833333 10.70833333 -2.47916667 14.35416667 -3 18 C-3.66 18 -4.32 18 -5 18 C-4.979375 18.969375 -4.95875 19.93875 -4.9375 20.9375 C-5 24 -5 24 -6 25 C-6.30523962 29.65088715 -6.30523962 29.65088715 -5 34 C-5.66 34 -6.32 34 -7 34 C-8.75367225 39.26101675 -8.18463827 44.86902971 -8.1875 50.375 C-8.19974609 51.60734375 -8.21199219 52.8396875 -8.22460938 54.109375 C-8.22654297 55.29789063 -8.22847656 56.48640625 -8.23046875 57.7109375 C-8.23457764 58.79681152 -8.23868652 59.88268555 -8.24291992 61.00146484 C-7.99485202 64.0635452 -7.18314831 66.19298739 -6 69 C-6.375 71.8125 -6.375 71.8125 -7 74 C-6.34 74 -5.68 74 -5 74 C-4.731875 75.258125 -4.46375 76.51625 -4.1875 77.8125 C-3.34815705 81.55680295 -2.45694936 85.2839276 -1.5 89 C-1.2628125 89.928125 -1.025625 90.85625 -0.78125 91.8125 C-0.22092087 94.17783347 -0.22092087 94.17783347 2 95 C2.33 94.01 2.66 93.02 3 92 C3.51175781 91.53980469 4.02351563 91.07960938 4.55078125 90.60546875 C6.49827646 88.44800101 6.31164852 87.16791604 6.1875 84.3125 C6.16042969 83.50425781 6.13335937 82.69601563 6.10546875 81.86328125 C6.05326172 80.94095703 6.05326172 80.94095703 6 80 C5.34 80 4.68 80 4 80 C4.17378174 79.27683594 4.34756348 78.55367188 4.52661133 77.80859375 C5.0003243 74.99807594 4.91990236 72.8778558 4.57421875 70.0625 C3.87686671 63.36971715 3.81616654 56.72443602 3.8125 50 C3.80025391 48.78699219 3.78800781 47.57398438 3.77539062 46.32421875 C3.77345703 45.16535156 3.77152344 44.00648438 3.76953125 42.8125 C3.76542236 41.76707031 3.76131348 40.72164062 3.75708008 39.64453125 C4 37 4 37 6 34 C6 37.29881802 5.91573367 40.56452504 5.78125 43.859375 C5.71357422 45.53193359 5.71357422 45.53193359 5.64453125 47.23828125 C5.59683594 48.39714844 5.54914063 49.55601562 5.5 50.75 C5.45230469 51.92433594 5.40460938 53.09867188 5.35546875 54.30859375 C5.2376978 57.20575923 5.1191808 60.10289223 5 63 C5.66 63 6.32 63 7 63 C7.07347656 64.19496094 7.07347656 64.19496094 7.1484375 65.4140625 C7.53769718 70.93081173 7.99914628 75.79778033 10 81 C10 81.99 10 82.98 10 84 C10.66 84 11.32 84 12 84 C12 85.98 12 87.96 12 90 C12.66 90 13.32 90 14 90 C14 91.65 14 93.3 14 95 C14.66 95 15.32 95 16 95 C16.33 96.65 16.66 98.3 17 100 C17.66 100 18.32 100 19 100 C19 101.32 19 102.64 19 104 C19.66 104 20.32 104 21 104 C21.50660156 104.95712891 21.50660156 104.95712891 22.0234375 105.93359375 C22.46945313 106.75988281 22.91546875 107.58617187 23.375 108.4375 C23.81585938 109.26121094 24.25671875 110.08492188 24.7109375 110.93359375 C25.83418559 113.13466578 25.83418559 113.13466578 28 114 C28 114.99 28 115.98 28 117 C28.66 117 29.32 117 30 117 C30.33 117.99 30.66 118.98 31 120 C31.99 120.495 31.99 120.495 33 121 C33 121.66 33 122.32 33 123 C33.66 123 34.32 123 35 123 C35 123.99 35 124.98 35 126 C35.99 126.33 36.98 126.66 38 127 C37.58682778 131.82034262 35.61980085 133.90992611 32 137 C31.34 137 30.68 137 30 137 C30 137.99 30 138.98 30 140 C26 140 26 140 24.078125 138.3203125 C23.47484375 137.59585938 22.8715625 136.87140625 22.25 136.125 C21.63640625 135.40570313 21.0228125 134.68640625 20.390625 133.9453125 C19 132 19 132 19 130 C18.34 130 17.68 130 17 130 C15.55036041 128.09625645 14.18815677 126.12532841 12.875 124.125 C11.78832031 122.48917969 11.78832031 122.48917969 10.6796875 120.8203125 C9 118 9 118 9 116 C8.34 116 7.68 116 7 116 C-10.08827442 83.77515763 -15.80052605 50.08944824 -5.77880859 14.44775391 C-4.20779896 9.51015436 -2.31842838 4.63685676 0 0 Z " fill="#194A8D" transform="translate(100,117)"/>
<path d="M0 0 C2.60545703 2.18858391 3.87402988 3.42182946 4.609375 6.796875 C4.65578125 7.77140625 4.7021875 8.7459375 4.75 9.75 C4.80671875 10.73484375 4.8634375 11.7196875 4.921875 12.734375 C4.94765625 13.48203125 4.9734375 14.2296875 5 15 C-0.62470514 18.06802099 -5.69403048 19.89061647 -12 21 C-12 21.66 -12 22.32 -12 23 C-13.051875 23.433125 -14.10375 23.86625 -15.1875 24.3125 C-19.16214448 26.01935338 -22.72714858 27.98920622 -26.125 30.6875 C-28 32 -28 32 -31 32 C-31.2475 32.5775 -31.495 33.155 -31.75 33.75 C-33.69381593 37.24886868 -35.9951015 39.44730582 -39.5 41.375 C-42.62775041 43.40803777 -43.99931166 45.89548361 -46 49 C-46.66 49 -47.32 49 -48 49 C-48 49.66 -48 50.32 -48 51 C-48.66 51 -49.32 51 -50 51 C-50 51.66 -50 52.32 -50 53 C-50.66 53 -51.32 53 -52 53 C-52 53.99 -52 54.98 -52 56 C-52.66 56 -53.32 56 -54 56 C-54 56.66 -54 57.32 -54 58 C-56 58.66666667 -58 59.33333333 -60 60 C-60 56.7 -60 53.4 -60 50 C-57.36 50 -54.72 50 -52 50 C-51.9175 49.2575 -51.835 48.515 -51.75 47.75 C-50.85190201 44.45697405 -49.61583926 43.14023212 -47 41 C-46.34 41 -45.68 41 -45 41 C-44.34 39.35 -43.68 37.7 -43 36 C-43.66 35.67 -44.32 35.34 -45 35 C-41.7 34.34 -38.4 33.68 -35 33 C-35.33 31.02 -35.66 29.04 -36 27 C-36.66 27 -37.32 27 -38 27 C-38 26.34 -38 25.68 -38 25 C-39.65 25.33 -41.3 25.66 -43 26 C-43.2165625 26.8971875 -43.2165625 26.8971875 -43.4375 27.8125 C-43.8872439 29.56150404 -44.42892341 31.28677023 -45 33 C-48.5625 34.1875 -48.5625 34.1875 -52 35 C-52 36.65 -52 38.3 -52 40 C-53.485 40.495 -53.485 40.495 -55 41 C-55 40.34 -55 39.68 -55 39 C-55.66 39 -56.32 39 -57 39 C-55.92478895 30.9772714 -49.09456799 26.73043528 -43.03930664 22.02050781 C-30.01647718 12.20659968 -15.5673132 4.82510523 0 0 Z M-38 22 C-37 25 -37 25 -37 25 Z " fill="#0A81B6" transform="translate(180,47)"/>
<path d="M0 0 C0 0.99 0 1.98 0 3 C-0.33 3.33 -0.66 3.66 -1 4 C-0.21625 4.12375 0.5675 4.2475 1.375 4.375 C4 5 4 5 6 7 C6 7.99 6 8.98 6 10 C6.91523438 9.84402344 7.83046875 9.68804687 8.7734375 9.52734375 C10.55621094 9.23537109 10.55621094 9.23537109 12.375 8.9375 C13.55835938 8.74027344 14.74171875 8.54304688 15.9609375 8.33984375 C19 8 19 8 21 9 C20.34773438 9.25394531 19.69546875 9.50789063 19.0234375 9.76953125 C11.52117681 12.72396134 5.06480016 15.7507115 -1.265625 20.79296875 C-3 22 -3 22 -5 22 C-5 22.99 -5 23.98 -5 25 C-6.31787285 26.02028865 -7.65210653 27.01971384 -9 28 C-9.33 28.99 -9.66 29.98 -10 31 C-10.66 31 -11.32 31 -12 31 C-12 31.99 -12 32.98 -12 34 C-12.99 34.495 -12.99 34.495 -14 35 C-14.90343684 36.88263881 -14.90343684 36.88263881 -15.625 39.0625 C-15.88539063 39.79597656 -16.14578125 40.52945313 -16.4140625 41.28515625 C-16.60742188 41.85105469 -16.80078125 42.41695312 -17 43 C-22.76044212 42.39363767 -27.72014369 40.24341721 -33 38 C-31.52840671 32.86541905 -29.24672098 28.65314066 -26.5 24.125 C-26.09652344 23.43664062 -25.69304687 22.74828125 -25.27734375 22.0390625 C-24.24494852 20.32181102 -23.12888572 18.65541825 -22 17 C-21.34 17 -20.68 17 -20 17 C-20 16.34 -20 15.68 -20 15 C-19.34 15 -18.68 15 -18 15 C-17.7525 14.401875 -17.505 13.80375 -17.25 13.1875 C-15.81927475 10.68373081 -14.4308418 9.51927612 -12 8 C-11.34 8 -10.68 8 -10 8 C-10 7.34 -10 6.68 -10 6 C-7.4385343 3.70351351 -6.52032428 3 -3 3 C-3 2.34 -3 1.68 -3 1 C-2.01 0.67 -1.02 0.34 0 0 Z " fill="#0F70AA" transform="translate(180,104)"/>
<path d="M0 0 C0 0.66 0 1.32 0 2 C0.66 2 1.32 2 2 2 C2 2.66 2 3.32 2 4 C2.99 4 3.98 4 5 4 C5 5.65 5 7.3 5 9 C5.66 9 6.32 9 7 9 C7.2626806 15.43567464 6.71690994 20.45232719 3.0625 25.875 C-1.41061685 28.97879537 -5.63808113 29.1577035 -11 29 C-14.4375 28.1875 -14.4375 28.1875 -17 27 C-17.721875 26.773125 -18.44375 26.54625 -19.1875 26.3125 C-22.09200444 24.20923816 -23.09261311 21.34681108 -24 18 C-24.5528329 12.19525458 -24.0528103 7.08801717 -21 2 C-15.54140064 -2.47885076 -6.49097903 -2.16365968 0 0 Z " fill="#1B4185" transform="translate(156,250)"/>
<path d="M0 0 C2.29609976 1.44670725 3.9083535 2.5745195 5.13671875 5.03125 C5.20764717 7.2385423 5.220869 9.44792452 5.19921875 11.65625 C5.19019531 12.84476563 5.18117187 14.03328125 5.171875 15.2578125 C5.16027344 16.17304688 5.14867187 17.08828125 5.13671875 18.03125 C4.47671875 18.03125 3.81671875 18.03125 3.13671875 18.03125 C3.13671875 19.35125 3.13671875 20.67125 3.13671875 22.03125 C-5.80153791 27.16030569 -5.80153791 27.16030569 -10.421875 26.87109375 C-15.33628419 25.35450542 -18.52161308 22.99948096 -21.86328125 19.03125 C-22.19328125 18.70125 -22.52328125 18.37125 -22.86328125 18.03125 C-23.01580434 16.11884516 -23.08520898 14.19952201 -23.11328125 12.28125 C-23.1390625 11.23453125 -23.16484375 10.1878125 -23.19140625 9.109375 C-22.81615725 5.58918204 -22.01420489 3.82359257 -19.86328125 1.03125 C-13.3405501 -3.77566231 -7.01571761 -3.64758484 0 0 Z " fill="#1163A0" transform="translate(157.86328125,152.96875)"/>
<path d="M0 0 C1.26972656 0.07863281 2.53945313 0.15726563 3.84765625 0.23828125 C4.86730469 0.38652344 5.88695312 0.53476563 6.9375 0.6875 C8.29869392 3.40988784 7.69879827 4.78072479 6.9375 7.6875 C5.875 10 5.875 10 4.9375 11.6875 C4.2775 11.6875 3.6175 11.6875 2.9375 11.6875 C2.834375 12.265 2.73125 12.8425 2.625 13.4375 C1.81215516 16.09771947 0.86905261 17.68440841 -1.0625 19.6875 C-2.3825 19.6875 -3.7025 19.6875 -5.0625 19.6875 C-5.1553125 20.7703125 -5.1553125 20.7703125 -5.25 21.875 C-6.32242966 25.5872565 -8.16007913 27.19971068 -11.0625 29.6875 C-12.0525 30.0175 -13.0425 30.3475 -14.0625 30.6875 C-14.000625 29.924375 -13.93875 29.16125 -13.875 28.375 C-13.80351915 25.64224688 -13.80351915 25.64224688 -15.5625 23.875 C-16.0575 23.483125 -16.5525 23.09125 -17.0625 22.6875 C-17.7225 23.0175 -18.3825 23.3475 -19.0625 23.6875 C-20.39583333 24.35416667 -21.72916667 25.02083333 -23.0625 25.6875 C-23.7225 25.0275 -24.3825 24.3675 -25.0625 23.6875 C-24.4025 22.3675 -23.7425 21.0475 -23.0625 19.6875 C-22.4025 19.6875 -21.7425 19.6875 -21.0625 19.6875 C-20.7325 18.6975 -20.4025 17.7075 -20.0625 16.6875 C-19.4025 16.6875 -18.7425 16.6875 -18.0625 16.6875 C-17.4025 14.7075 -16.7425 12.7275 -16.0625 10.6875 C-15.4025 10.6875 -14.7425 10.6875 -14.0625 10.6875 C-14.0625 9.6975 -14.0625 8.7075 -14.0625 7.6875 C-13.4025 7.6875 -12.7425 7.6875 -12.0625 7.6875 C-11.7325 6.0375 -11.4025 4.3875 -11.0625 2.6875 C-10.4025 2.6875 -9.7425 2.6875 -9.0625 2.6875 C-9.0625 2.0275 -9.0625 1.3675 -9.0625 0.6875 C-6.02838424 -0.82955788 -3.35333483 -0.22855894 0 0 Z " fill="#145A97" transform="translate(319.0625,216.3125)"/>
<path d="M0 0 C2.0625 -0.375 2.0625 -0.375 5 0 C6.96392726 1.40340725 8.68936087 2.93924534 10.44921875 4.58984375 C11.96326593 6.09449391 11.96326593 6.09449391 14 7 C14 7.66 14 8.32 14 9 C14.53625 9.226875 15.0725 9.45375 15.625 9.6875 C18.78500863 11.43382056 21.2676983 13.6402849 24 16 C22.0178489 24.2937375 22.0178489 24.2937375 17.9375 27.125 C15 28 15 28 13 27 C13 26.34 13 25.68 13 25 C10.06279492 23.47700477 7.0831351 22.19899698 4 21 C4 20.34 4 19.68 4 19 C2.68 18.67 1.36 18.34 0 18 C0 17.34 0 16.68 0 16 C-0.99 16 -1.98 16 -3 16 C-3 15.34 -3 14.68 -3 14 C-3.99 13.67 -4.98 13.34 -6 13 C-5.37240135 10.07120629 -4.41377341 7.63904371 -3 5 C-2.34 5 -1.68 5 -1 5 C-0.67 3.35 -0.34 1.7 0 0 Z " fill="#0888BD" transform="translate(278,63)"/>
<path d="M0 0 C2.60545703 2.18858391 3.87402988 3.42182946 4.609375 6.796875 C4.65578125 7.77140625 4.7021875 8.7459375 4.75 9.75 C4.80671875 10.73484375 4.8634375 11.7196875 4.921875 12.734375 C4.94765625 13.48203125 4.9734375 14.2296875 5 15 C-3.26984479 19.32382748 -9.59523044 21.33455702 -19 21 C-19.66 19.02 -20.32 17.04 -21 15 C-21.66 15 -22.32 15 -23 15 C-23.1875 12.3125 -23.1875 12.3125 -22 9 C-18.55874563 6.7837059 -14.82575225 5.42099369 -11 4 C-9.95199219 3.60425781 -8.90398437 3.20851562 -7.82421875 2.80078125 C-5.22473437 1.83988236 -2.61879391 0.90670041 0 0 Z " fill="#0B84B9" transform="translate(180,47)"/>
<path d="M0 0 C0 0.66 0 1.32 0 2 C0.66 2 1.32 2 2 2 C3.72543986 5.45087973 3.35713243 9.21978695 3 13 C1.46904394 16.51219333 0.20985378 16.91450401 -3.375 18.375 C-8.332087 19.22967017 -10.27239142 18.1673031 -14.3125 15.4375 C-16.85638008 11.76300656 -16.65329071 8.33402615 -16 4 C-14.61596447 1.086241 -13.81253038 0.301797 -10.8125 -0.8125 C-7.07340923 -1.06177272 -3.70503867 -0.56517539 0 0 Z " fill="#0D7AB1" transform="translate(258,107)"/>
<path d="M0 0 C0.33 1.32 0.66 2.64 1 4 C0.34 4 -0.32 4 -1 4 C-1.144375 5.010625 -1.28875 6.02125 -1.4375 7.0625 C-1.95833333 10.70833333 -2.47916667 14.35416667 -3 18 C-3.66 18 -4.32 18 -5 18 C-4.979375 18.969375 -4.95875 19.93875 -4.9375 20.9375 C-5 24 -5 24 -6 25 C-6.30523962 29.65088715 -6.30523962 29.65088715 -5 34 C-5.66 34 -6.32 34 -7 34 C-8.75367225 39.26101675 -8.18463827 44.86902971 -8.1875 50.375 C-8.19974609 51.60734375 -8.21199219 52.8396875 -8.22460938 54.109375 C-8.22654297 55.29789063 -8.22847656 56.48640625 -8.23046875 57.7109375 C-8.23457764 58.79681152 -8.23868652 59.88268555 -8.24291992 61.00146484 C-7.99485202 64.0635452 -7.18314831 66.19298739 -6 69 C-6.375 71.8125 -6.375 71.8125 -7 74 C-6.34 74 -5.68 74 -5 74 C-4.773125 75.134375 -4.54625 76.26875 -4.3125 77.4375 C-1.78692226 88.7219963 1.10616275 99.99041971 7.171875 109.91796875 C8.1718199 111.57883614 9.09292869 113.28664308 10 115 C9.67 115.99 9.34 116.98 9 118 C9 117.34 9 116.68 9 116 C8.34 116 7.68 116 7 116 C-10.08827442 83.77515763 -15.80052605 50.08944824 -5.77880859 14.44775391 C-4.20779896 9.51015436 -2.31842838 4.63685676 0 0 Z " fill="#1E5182" transform="translate(100,117)"/>
<path d="M0 0 C1.23556641 0.01740234 1.23556641 0.01740234 2.49609375 0.03515625 C3.32238281 0.04417969 4.14867187 0.05320313 5 0.0625 C5.63808594 0.07410156 6.27617187 0.08570313 6.93359375 0.09765625 C6.93359375 0.75765625 6.93359375 1.41765625 6.93359375 2.09765625 C7.59359375 2.09765625 8.25359375 2.09765625 8.93359375 2.09765625 C10.50530371 5.24107618 10.16535158 8.65537076 9.93359375 12.09765625 C8.93359375 15.09765625 8.93359375 15.09765625 6.74609375 16.28515625 C3.59330325 17.1959624 1.19802615 17.45248586 -2.06640625 17.09765625 C-4.94070313 14.90172141 -5.59595634 12.90235194 -6.25390625 9.41015625 C-6.41246094 8.60191406 -6.57101563 7.79367188 -6.734375 6.9609375 C-6.84394531 6.34605469 -6.95351562 5.73117188 -7.06640625 5.09765625 C-6.40640625 5.09765625 -5.74640625 5.09765625 -5.06640625 5.09765625 C-4.60234375 4.13859375 -4.60234375 4.13859375 -4.12890625 3.16015625 C-2.56335317 0.12114145 -2.56335317 0.12114145 0 0 Z " fill="#16568F" transform="translate(247.06640625,211.90234375)"/>
<path d="M0 0 C-0.99 0.66 -1.98 1.32 -3 2 C-3.66 2.53625 -4.32 3.0725 -5 3.625 C-7 5 -7 5 -10 5 C-10.2475 5.5775 -10.495 6.155 -10.75 6.75 C-12.69381593 10.24886868 -14.9951015 12.44730582 -18.5 14.375 C-21.62775041 16.40803777 -22.99931166 18.89548361 -25 22 C-25.66 22 -26.32 22 -27 22 C-27 22.66 -27 23.32 -27 24 C-27.66 24 -28.32 24 -29 24 C-29 24.66 -29 25.32 -29 26 C-29.66 26 -30.32 26 -31 26 C-31 26.99 -31 27.98 -31 29 C-31.66 29 -32.32 29 -33 29 C-33 29.66 -33 30.32 -33 31 C-35 31.66666667 -37 32.33333333 -39 33 C-39 29.7 -39 26.4 -39 23 C-36.36 23 -33.72 23 -31 23 C-30.9175 22.2575 -30.835 21.515 -30.75 20.75 C-29.85190201 17.45697405 -28.61583926 16.14023212 -26 14 C-25.34 14 -24.68 14 -24 14 C-23.34 12.35 -22.68 10.7 -22 9 C-22.66 8.67 -23.32 8.34 -24 8 C-20.7 7.34 -17.4 6.68 -14 6 C-14.33 5.01 -14.66 4.02 -15 3 C-14.278125 2.87625 -13.55625 2.7525 -12.8125 2.625 C-9.999974 2.08960755 -9.999974 2.08960755 -7.5 0.9375 C-4.82226817 -0.06664944 -2.83421974 -0.16195541 0 0 Z " fill="#1074AA" transform="translate(159,74)"/>
<path d="M0 0 C2.29609976 1.44670725 3.9083535 2.5745195 5.13671875 5.03125 C5.20764717 7.2385423 5.220869 9.44792452 5.19921875 11.65625 C5.19019531 12.84476563 5.18117187 14.03328125 5.171875 15.2578125 C5.16027344 16.17304688 5.14867187 17.08828125 5.13671875 18.03125 C4.47671875 18.03125 3.81671875 18.03125 3.13671875 18.03125 C3.13671875 19.35125 3.13671875 20.67125 3.13671875 22.03125 C1.17205462 23.09900224 -0.83183484 24.09678465 -2.86328125 25.03125 C-3.52328125 24.70125 -4.18328125 24.37125 -4.86328125 24.03125 C-4.53328125 23.04125 -4.20328125 22.05125 -3.86328125 21.03125 C-2.90421875 20.8146875 -2.90421875 20.8146875 -1.92578125 20.59375 C0.28050043 20.2406243 0.28050043 20.2406243 1.25390625 18.2734375 C3.23583478 13.23968981 2.4650662 7.17859638 1.13671875 2.03125 C-1.83328125 1.53625 -1.83328125 1.53625 -4.86328125 1.03125 C-4.86328125 0.37125 -4.86328125 -0.28875 -4.86328125 -0.96875 C-10.92592347 -0.30610914 -10.92592347 -0.30610914 -16.86328125 1.03125 C-16.86328125 1.69125 -16.86328125 2.35125 -16.86328125 3.03125 C-17.85328125 3.52625 -17.85328125 3.52625 -18.86328125 4.03125 C-20.75736977 8.76647129 -20.53727061 14.2075141 -18.80078125 18.90625 C-16.15779017 21.80501441 -13.62774926 22.15735564 -9.86328125 23.03125 C-8.87328125 23.69125 -7.88328125 24.35125 -6.86328125 25.03125 C-7.19328125 25.69125 -7.52328125 26.35125 -7.86328125 27.03125 C-13.83109988 25.43203063 -17.75928572 23.90474469 -21.86328125 19.03125 C-22.19328125 18.70125 -22.52328125 18.37125 -22.86328125 18.03125 C-23.01580434 16.11884516 -23.08520898 14.19952201 -23.11328125 12.28125 C-23.1390625 11.23453125 -23.16484375 10.1878125 -23.19140625 9.109375 C-22.81615725 5.58918204 -22.01420489 3.82359257 -19.86328125 1.03125 C-13.3405501 -3.77566231 -7.01571761 -3.64758484 0 0 Z " fill="#1B567D" transform="translate(157.86328125,152.96875)"/>
<path d="M0 0 C0.8125 1.625 0.8125 1.625 1 4 C-0.46818136 6.24609835 -2.15852858 8.02378677 -4 10 C-3.34 10.66 -2.68 11.32 -2 12 C-2 12.66 -2 13.32 -2 14 C-5.08809695 15.76462683 -6.23312136 16 -10 16 C-10 16.99 -10 17.98 -10 19 C-9.34 19 -8.68 19 -8 19 C-7.67 20.65 -7.34 22.3 -7 24 C-6.360625 24.12375 -5.72125 24.2475 -5.0625 24.375 C-4.381875 24.58125 -3.70125 24.7875 -3 25 C-2.67 25.66 -2.34 26.32 -2 27 C-1.34 25.68 -0.68 24.36 0 23 C0.99 23 1.98 23 3 23 C2.34 25.31 1.68 27.62 1 30 C-4.76044212 29.39363767 -9.72014369 27.24341721 -15 25 C-13.52840671 19.86541905 -11.24672098 15.65314066 -8.5 11.125 C-8.09652344 10.43664062 -7.69304687 9.74828125 -7.27734375 9.0390625 C-6.24494852 7.32181102 -5.12888572 5.65541825 -4 4 C-3.34 4 -2.68 4 -2 4 C-2 3.34 -2 2.68 -2 2 C-1.34 2 -0.68 2 0 2 C0 1.34 0 0.68 0 0 Z " fill="#176896" transform="translate(162,117)"/>
<path d="M0 0 C0.99 0.33 1.98 0.66 3 1 C3.6875 3.0625 3.6875 3.0625 4 5 C7.62528568 5.20140476 9.86501708 4.85776765 13 3 C13.12375 3.598125 13.2475 4.19625 13.375 4.8125 C13.95475985 7.26231348 13.95475985 7.26231348 16 10 C16.66 10 17.32 10 18 10 C18.66 8.68 19.32 7.36 20 6 C21.25664978 8.90600261 22 10.79604584 22 14 C19.39421134 13.91304042 16.7918721 13.80618592 14.1875 13.6875 C13.44951172 13.66494141 12.71152344 13.64238281 11.95117188 13.61914062 C6.48491246 13.34706436 6.48491246 13.34706436 4.0625 11.61328125 C1.97657829 8.44605454 1 5.7960273 1 2 C0.34 1.67 -0.32 1.34 -1 1 C-0.67 0.67 -0.34 0.34 0 0 Z " fill="#1373AE" transform="translate(309,114)"/>
<path d="M0 0 C2.0625 -0.375 2.0625 -0.375 5 0 C6.96392726 1.40340725 8.68936087 2.93924534 10.44921875 4.58984375 C11.96326593 6.09449391 11.96326593 6.09449391 14 7 C14 7.66 14 8.32 14 9 C12.02 9.99 12.02 9.99 10 11 C9.4225 10.484375 8.845 9.96875 8.25 9.4375 C6.13516236 7.72903966 6.13516236 7.72903966 3.875 8.375 C3.25625 8.58125 2.6375 8.7875 2 9 C1.34 8.67 0.68 8.34 0 8 C-0.33 8.99 -0.66 9.98 -1 11 C-1.33 11 -1.66 11 -2 11 C-1.73323796 12.98491642 -1.73323796 12.98491642 -1 15 C-0.01 15.33 0.98 15.66 2 16 C2 16.66 2 17.32 2 18 C1.34 18 0.68 18 0 18 C0 17.34 0 16.68 0 16 C-0.99 16 -1.98 16 -3 16 C-3 15.34 -3 14.68 -3 14 C-3.99 13.67 -4.98 13.34 -6 13 C-5.37240135 10.07120629 -4.41377341 7.63904371 -3 5 C-2.34 5 -1.68 5 -1 5 C-0.67 3.35 -0.34 1.7 0 0 Z " fill="#0C8BBF" transform="translate(278,63)"/>
<path d="M0 0 C1 3 1 3 -0.125 5.625 C-2 8 -2 8 -4.6875 8.8125 C-5.450625 8.874375 -6.21375 8.93625 -7 9 C-7.2165625 9.8971875 -7.2165625 9.8971875 -7.4375 10.8125 C-7.8872439 12.56150404 -8.42892341 14.28677023 -9 16 C-12.5625 17.1875 -12.5625 17.1875 -16 18 C-16 19.65 -16 21.3 -16 23 C-16.99 23.33 -17.98 23.66 -19 24 C-19 23.34 -19 22.68 -19 22 C-19.66 22 -20.32 22 -21 22 C-20.04916305 14.64686094 -14.39483066 10.81632195 -8.80078125 6.484375 C-5.89774896 4.28062578 -2.95785404 2.12965491 0 0 Z " fill="#127BAD" transform="translate(144,64)"/>
<path d="M0 0 C0.66 0.33 1.32 0.66 2 1 C1.67 1.66 1.34 2.32 1 3 C0.34 3 -0.32 3 -1 3 C-1.33 4.65 -1.66 6.3 -2 8 C-2.66 8 -3.32 8 -4 8 C-4 8.66 -4 9.32 -4 10 C-4.66 10 -5.32 10 -6 10 C-6.268125 10.7425 -6.53625 11.485 -6.8125 12.25 C-7.95276751 14.89061949 -9.09380306 16.85552844 -11 19 C-11.66 19 -12.32 19 -13 19 C-13.33 19.99 -13.66 20.98 -14 22 C-14.66 22 -15.32 22 -16 22 C-16 22.66 -16 23.32 -16 24 C-17.98 24.99 -17.98 24.99 -20 26 C-22 23 -22 23 -22 21.0625 C-20.44997409 17.86557156 -18.03772122 16.70112389 -15 15 C-14.01 15 -13.02 15 -12 15 C-11.67 14.01 -11.34 13.02 -11 12 C-8.46221127 9.26185953 -6.1110644 7.07404293 -3 5 C-2.63837971 3.67405895 -2.30271961 2.34061543 -2 1 C-1.34 0.67 -0.68 0.34 0 0 Z " fill="#184C8C" transform="translate(316,235)"/>
<path d="M0 0 C0.66 0.33 1.32 0.66 2 1 C1.67 1.99 1.34 2.98 1 4 C0.85060226 5.91765594 0.75189717 7.83946522 0.68359375 9.76171875 C0.64169922 10.87998047 0.59980469 11.99824219 0.55664062 13.15039062 C0.51732422 14.31763672 0.47800781 15.48488281 0.4375 16.6875 C0.39431641 17.86634766 0.35113281 19.04519531 0.30664062 20.25976562 C0.20048824 23.17305883 0.09843758 26.08643757 0 29 C0.66 29 1.32 29 2 29 C2.04898438 29.79664063 2.09796875 30.59328125 2.1484375 31.4140625 C2.53769718 36.93081173 2.99914628 41.79778033 5 47 C5 47.99 5 48.98 5 50 C5.66 50 6.32 50 7 50 C7 50.99 7 51.98 7 53 C5 53 5 53 3.5 51.75 C1.00771135 48.84232991 -0.34931363 45.77398097 -1 42 C-0.505 41.505 -0.505 41.505 0 41 C-0.09086743 39.43358245 -0.24739718 37.87092583 -0.4296875 36.3125 C-1.11155909 29.53324933 -1.14727412 22.80845681 -1.125 16 C-1.12886719 14.78699219 -1.13273437 13.57398438 -1.13671875 12.32421875 C-1.13542969 11.16535156 -1.13414063 10.00648438 -1.1328125 8.8125 C-1.13168457 7.76707031 -1.13055664 6.72164062 -1.12939453 5.64453125 C-1 3 -1 3 0 0 Z " fill="#1D507B" transform="translate(105,151)"/>
<path d="M0 0 C1.98 0 3.96 0 6 0 C6 0.66 6 1.32 6 2 C7.65 2 9.3 2 11 2 C11 2.66 11 3.32 11 4 C12.010625 4.12375 13.02125 4.2475 14.0625 4.375 C17.87937612 4.98085335 21.31500112 5.87193912 25 7 C25 7.66 25 8.32 25 9 C17.16008251 8.52960495 10.27928865 5.77062812 3 3 C0.4112324 6.8831514 -1.97435578 10.79289278 -4 15 C-5 14 -5 14 -5.0625 11.4375 C-5.041875 10.633125 -5.02125 9.82875 -5 9 C-4.34 9 -3.68 9 -3 9 C-2.87625 8.443125 -2.7525 7.88625 -2.625 7.3125 C-1.94023145 4.77885636 -1.00866237 2.42078968 0 0 Z " fill="#1B3569" transform="translate(166,266)"/>
<path d="M0 0 C13.42857143 3.71428571 13.42857143 3.71428571 18 6 C20.02287811 6.09743937 22.04899627 6.13076933 24.07421875 6.1328125 C25.29947266 6.13410156 26.52472656 6.13539063 27.78710938 6.13671875 C29.07423828 6.13285156 30.36136719 6.12898437 31.6875 6.125 C33.58918945 6.13080078 33.58918945 6.13080078 35.52929688 6.13671875 C36.76099609 6.13542969 37.99269531 6.13414062 39.26171875 6.1328125 C40.94720825 6.13112061 40.94720825 6.13112061 42.66674805 6.12939453 C46.16865896 5.99345278 49.54132127 5.55235738 53 5 C45.40125595 10.06582937 34.85958833 9.28934892 26 9 C25.16082031 8.98324219 24.32164062 8.96648437 23.45703125 8.94921875 C15.13798404 8.51913507 7.75385536 5.83575547 0 3 C0 2.01 0 1.02 0 0 Z " fill="#1E4B75" transform="translate(183,230)"/>
<path d="M0 0 C1.32 0.33 2.64 0.66 4 1 C4 2.98 4 4.96 4 7 C4.66 7 5.32 7 6 7 C6 7.66 6 8.32 6 9 C9.63 9.66 13.26 10.32 17 11 C17 11.33 17 11.66 17 12 C8.20031167 12.58664589 -0.77697579 11.03612647 -7.75 5.25 C-8.4925 4.5075 -9.235 3.765 -10 3 C-7.37886292 3 -5.49064888 3.31292445 -3 4 C-3 4.66 -3 5.32 -3 6 C-2.34 6 -1.68 6 -1 6 C-1 4.68 -1 3.36 -1 2 C-0.67 1.34 -0.34 0.68 0 0 Z " fill="#0785B9" transform="translate(218,70)"/>
<path d="M0 0 C0.66 0 1.32 0 2 0 C2 0.66 2 1.32 2 2 C2.66 2 3.32 2 4 2 C4 2.66 4 3.32 4 4 C4.66 4 5.32 4 6 4 C11.34972356 13.58492138 12.88599419 20.05633098 12 31 C11.67 31 11.34 31 11 31 C10.95101563 30.22914062 10.90203125 29.45828125 10.8515625 28.6640625 C10.77679688 27.66117188 10.70203125 26.65828125 10.625 25.625 C10.55539062 24.62726562 10.48578125 23.62953125 10.4140625 22.6015625 C10.23636036 19.84491121 10.23636036 19.84491121 8 18 C7.34 17.67 6.68 17.34 6 17 C5.5859375 14.49609375 5.5859375 14.49609375 5.375 11.4375 C5.30023438 10.42558594 5.22546875 9.41367187 5.1484375 8.37109375 C5.09945313 7.58863281 5.05046875 6.80617188 5 6 C4.34 6 3.68 6 3 6 C3 5.01 3 4.02 3 3 C2.01 3 1.02 3 0 3 C0 2.01 0 1.02 0 0 Z " fill="#1A8EB5" transform="translate(252,24)"/>
<path d="M0 0 C0.33 1.32 0.66 2.64 1 4 C0.34 4 -0.32 4 -1 4 C-1.144375 5.010625 -1.28875 6.02125 -1.4375 7.0625 C-1.95833333 10.70833333 -2.47916667 14.35416667 -3 18 C-3.66 18 -4.32 18 -5 18 C-4.979375 18.969375 -4.95875 19.93875 -4.9375 20.9375 C-5 24 -5 24 -6 25 C-6.30523962 29.65088715 -6.30523962 29.65088715 -5 34 C-5.66 34 -6.32 34 -7 34 C-7.33 34.99 -7.66 35.98 -8 37 C-10.89867184 31.20265633 -8.47558696 23.91688008 -6.75 18.0625 C-6.52546143 17.27633301 -6.30092285 16.49016602 -6.06958008 15.68017578 C-4.46842423 10.21847416 -2.54959188 5.09918375 0 0 Z " fill="#1C5C85" transform="translate(100,117)"/>
<path d="M0 0 C0 0.33 0 0.66 0 1 C-1.65 1 -3.3 1 -5 1 C-5 1.66 -5 2.32 -5 3 C-6.98 3.33 -8.96 3.66 -11 4 C-10.67 5.32 -10.34 6.64 -10 8 C-10.66 8 -11.32 8 -12 8 C-12 9.32 -12 10.64 -12 12 C-11.34 12.33 -10.68 12.66 -10 13 C-11.32 13.33 -12.64 13.66 -14 14 C-14.99 10.7 -15.98 7.4 -17 4 C-14.42233201 1.42233201 -12.54119318 1.51642401 -9 1 C-6.04335481 -0.4783226 -3.25770263 -0.06032783 0 0 Z " fill="#164C7E" transform="translate(161,182)"/>
<path d="M0 0 C0.33 1.32 0.66 2.64 1 4 C-0.32 4.33 -1.64 4.66 -3 5 C-2.24849977 8.27773504 -2.24849977 8.27773504 1 10 C-0.65 10.33 -2.3 10.66 -4 11 C-4 10.01 -4 9.02 -4 8 C-4.99 8 -5.98 8 -7 8 C-7.66 7.01 -8.32 6.02 -9 5 C-9.99 4.34 -10.98 3.68 -12 3 C-7.77050005 0.58314288 -4.87664009 -0.34833144 0 0 Z " fill="#088BC2" transform="translate(180,50)"/>
<path d="M0 0 C0.99 0 1.98 0 3 0 C3 0.66 3 1.32 3 2 C3.66 2 4.32 2 5 2 C5 2.99 5 3.98 5 5 C5.99 5.33 6.98 5.66 8 6 C7.58682778 10.82034262 5.61980085 12.90992611 2 16 C1.34 16 0.68 16 0 16 C0 16.99 0 17.98 0 19 C-1.32 18.67 -2.64 18.34 -4 18 C-3.34 18 -2.68 18 -2 18 C-1.67 16.68 -1.34 15.36 -1 14 C-0.34 14 0.32 14 1 14 C1.28875 13.360625 1.5775 12.72125 1.875 12.0625 C3 10 3 10 5 9 C4.67 8.34 4.34 7.68 4 7 C3.67 6.01 3.34 5.02 3 4 C2.34 4 1.68 4 1 4 C0.67 2.68 0.34 1.36 0 0 Z " fill="#12366E" transform="translate(130,238)"/>
<path d="M0 0 C0.99 0.66 1.98 1.32 3 2 C-6.93865902 6.09238901 -17.47957575 7.98140844 -28 10 C-27.67 9.01 -27.34 8.02 -27 7 C-24.30633618 6.15522374 -21.75328304 5.50396078 -19 4.9375 C-18.22849609 4.76758545 -17.45699219 4.5976709 -16.66210938 4.42260742 C-14.443845 3.93601889 -12.22273265 3.46568551 -10 3 C-4.58870581 2.27999126 -4.58870581 2.27999126 0 0 Z " fill="#1C3A6C" transform="translate(256,282)"/>
<path d="M0 0 C0.33 0.66 0.66 1.32 1 2 C-8.84259664 6.58854149 -16.05348171 9.35060023 -27 9 C-26.67 8.34 -26.34 7.68 -26 7 C-23.51296304 6.45530599 -21.07435202 6.01372552 -18.5625 5.625 C-11.97774037 4.51503549 -6.06702673 2.87308718 0 0 Z " fill="#23426F" transform="translate(252,268)"/>
<path d="M0 0 C1.9375 1.3125 1.9375 1.3125 4 4 C4.6575225 7.65582511 4.87210648 11.29108788 5 15 C4.01 15.33 3.02 15.66 2 16 C1.67 13.69 1.34 11.38 1 9 C-0.98 9.99 -0.98 9.99 -3 11 C-3 9.68 -3 8.36 -3 7 C-1.68 7 -0.36 7 1 7 C0.67 5.68 0.34 4.36 0 3 C-1.65 3.33 -3.3 3.66 -5 4 C-5 3.34 -5 2.68 -5 2 C-3.35 1.34 -1.7 0.68 0 0 Z " fill="#1382AB" transform="translate(180,47)"/>
<path d="M0 0 C0.33 0.66 0.66 1.32 1 2 C0.34 2 -0.32 2 -1 2 C-1 2.99 -1 3.98 -1 5 C-1.66 5 -2.32 5 -3 5 C-3.0825 6.0725 -3.165 7.145 -3.25 8.25 C-4.06668606 12.33343028 -4.90689149 13.39018969 -8 16 C-8.33 16.66 -8.66 17.32 -9 18 C-9.66 18 -10.32 18 -11 18 C-11 18.66 -11 19.32 -11 20 C-11.66 20 -12.32 20 -13 20 C-13.33 20.66 -13.66 21.32 -14 22 C-14.66 21.34 -15.32 20.68 -16 20 C-15.34 20 -14.68 20 -14 20 C-13.67 19.01 -13.34 18.02 -13 17 C-12.34 17 -11.68 17 -11 17 C-10.34 15.02 -9.68 13.04 -9 11 C-8.34 11 -7.68 11 -7 11 C-7 10.01 -7 9.02 -7 8 C-6.34 8 -5.68 8 -5 8 C-4.67 6.35 -4.34 4.7 -4 3 C-3.34 3 -2.68 3 -2 3 C-2 2.34 -2 1.68 -2 1 C-1.34 0.67 -0.68 0.34 0 0 Z " fill="#1A527C" transform="translate(312,216)"/>
<path d="M0 0 C3.20492592 3.04467962 6.32824728 6.16103894 7.86328125 10.36328125 C9.18376088 13.42624946 10.86528071 15.37054528 13.125 17.8125 C13.84945312 18.60269531 14.57390625 19.39289063 15.3203125 20.20703125 C15.87460938 20.79871094 16.42890625 21.39039063 17 22 C16.67 22.66 16.34 23.32 16 24 C15.34 23.67 14.68 23.34 14 23 C14 22.34 14 21.68 14 21 C13.34 21 12.68 21 12 21 C10.24542604 18.78307209 8.60993237 16.56830261 7 14.25 C6.54882812 13.61578125 6.09765625 12.9815625 5.6328125 12.328125 C0 4.32886464 0 4.32886464 0 0 Z " fill="#1A4C76" transform="translate(149,196)"/>
<path d="M0 0 C3.47505767 2.31670511 3.61561076 3.15246563 4.8125 7 C6.55020004 12.158797 8.9017245 16.39579248 11.92578125 20.90625 C12.45751953 21.94265625 12.45751953 21.94265625 13 23 C12.67 23.99 12.34 24.98 12 26 C12 25.34 12 24.68 12 24 C11.34 24 10.68 24 10 24 C8.705826 21.43873936 7.41459216 18.87606642 6.125 16.3125 C5.76019531 15.59126953 5.39539063 14.87003906 5.01953125 14.12695312 C0 4.13352273 0 4.13352273 0 0 Z " fill="#1C4374" transform="translate(97,209)"/>
<path d="M0 0 C0.99 0.33 1.98 0.66 3 1 C3.6875 3.0625 3.6875 3.0625 4 5 C1.525 6.485 1.525 6.485 -1 8 C-1 7.34 -1 6.68 -1 6 C-1.66 6 -2.32 6 -3 6 C-3 6.66 -3 7.32 -3 8 C-3.99 8 -4.98 8 -6 8 C-6.33 6.35 -6.66 4.7 -7 3 C-6.21625 2.690625 -5.4325 2.38125 -4.625 2.0625 C-2.07669872 1.07124962 -2.07669872 1.07124962 0 0 Z " fill="#097BB3" transform="translate(249,108)"/>
<path d="M0 0 C0.66 0 1.32 0 2 0 C1.30725597 5.36876623 -0.51786328 11.71813348 -4.59765625 15.46875 C-6.25 16.5625 -6.25 16.5625 -9 18 C-9 16.35 -9 14.7 -9 13 C-8.38125 12.7525 -7.7625 12.505 -7.125 12.25 C-4.62673377 10.78043163 -3.93305986 9.71435596 -3 7 C-3.33 6.34 -3.66 5.68 -4 5 C-2 2 -2 2 0 0 Z " fill="#1B86A8" transform="translate(261,56)"/>
<path d="M0 0 C1.65 0 3.3 0 5 0 C5.33 0.66 5.66 1.32 6 2 C4.35 2 2.7 2 1 2 C-1.77817186 8.36022733 -1.77817186 8.36022733 -1 15 C-0.01 15.33 0.98 15.66 2 16 C2 16.66 2 17.32 2 18 C1.34 18 0.68 18 0 18 C0 17.34 0 16.68 0 16 C-0.99 16 -1.98 16 -3 16 C-3 15.34 -3 14.68 -3 14 C-3.99 13.67 -4.98 13.34 -6 13 C-5.37240135 10.07120629 -4.41377341 7.63904371 -3 5 C-2.34 5 -1.68 5 -1 5 C-0.67 3.35 -0.34 1.7 0 0 Z " fill="#2E7FA0" transform="translate(278,63)"/>
<path d="M0 0 C5.8901721 0.52590822 11.68178677 1.39807077 17.5 2.4375 C18.57797852 2.62082886 18.57797852 2.62082886 19.67773438 2.80786133 C21.46573815 3.13701657 23.23574072 3.56103549 25 4 C25.33 4.66 25.66 5.32 26 6 C22.59379301 7.13540233 20.91006144 6.6048304 17.53125 5.671875 C13.31044091 4.55153679 9.02794928 3.69274091 4.7578125 2.78125 C2 2 2 2 0 0 Z " fill="#1F376B" transform="translate(175,285)"/>
<path d="M0 0 C2 3 2 3 3 8 C-3.93 7.505 -3.93 7.505 -11 7 C-10.67 6.01 -10.34 5.02 -10 4 C-7.03 4 -4.06 4 -1 4 C-0.67 2.68 -0.34 1.36 0 0 Z " fill="#23799F" transform="translate(328,120)"/>
<path d="M0 0 C0.66 0.33 1.32 0.66 2 1 C2.45854146 8.94805195 2.45854146 8.94805195 0.9375 12.4375 C-1.80021739 14.6453366 -4.60855434 15.23212551 -8 16 C-8.66 15.34 -9.32 14.68 -10 14 C-9.01 14 -8.02 14 -7 14 C-7 13.34 -7 12.68 -7 12 C-5.02 11.34 -3.04 10.68 -1 10 C-1.01160156 9.36191406 -1.02320313 8.72382812 -1.03515625 8.06640625 C-1.04417969 7.24011719 -1.05320312 6.41382812 -1.0625 5.5625 C-1.07410156 4.73878906 -1.08570313 3.91507812 -1.09765625 3.06640625 C-1 1 -1 1 0 0 Z " fill="#1F7499" transform="translate(259,110)"/>
<path d="M0 0 C0.66 0.66 1.32 1.32 2 2 C1.01 2.33 0.02 2.66 -1 3 C-1.33 3.99 -1.66 4.98 -2 6 C-5.0625 7.1875 -5.0625 7.1875 -8 8 C-8 8.66 -8 9.32 -8 10 C-9.32 10 -10.64 10 -12 10 C-12 10.66 -12 11.32 -12 12 C-12.99 12 -13.98 12 -15 12 C-13.73470933 8.20412799 -12.33761045 7.15090451 -9 5 C-5.6875 4.75 -5.6875 4.75 -3 5 C-2.87625 4.360625 -2.7525 3.72125 -2.625 3.0625 C-2.41875 2.381875 -2.2125 1.70125 -2 1 C-1.34 0.67 -0.68 0.34 0 0 Z " fill="#1A4070" transform="translate(290,263)"/>
<path d="M0 0 C0.8125 1.625 0.8125 1.625 1 4 C-0.46818136 6.24609835 -2.15852858 8.02378677 -4 10 C-3.34 10.66 -2.68 11.32 -2 12 C-2 12.66 -2 13.32 -2 14 C-3.8125 15.0625 -3.8125 15.0625 -6 16 C-6.99 15.67 -7.98 15.34 -9 15 C-8.34 15 -7.68 15 -7 15 C-6.87625 13.741875 -6.7525 12.48375 -6.625 11.1875 C-6.30131941 7.89674737 -5.93395001 6.90092502 -4 4 C-3.34 4 -2.68 4 -2 4 C-2 3.34 -2 2.68 -2 2 C-1.34 2 -0.68 2 0 2 C0 1.34 0 0.68 0 0 Z " fill="#0F6CA5" transform="translate(162,117)"/>
<path d="M0 0 C-2.12251117 2.30104014 -4.15548556 3.81894459 -6.9375 5.25 C-7.60652344 5.60578125 -8.27554688 5.9615625 -8.96484375 6.328125 C-11.38269269 7.12634 -12.63011757 6.82707306 -15 6 C-14.34 6 -13.68 6 -13 6 C-12.67 4.35 -12.34 2.7 -12 1 C-7.95858806 0.36605303 -4.0934693 -0.12404452 0 0 Z " fill="#1A82AC" transform="translate(252,74)"/>
<path d="M0 0 C1.2065625 0.0309375 1.2065625 0.0309375 2.4375 0.0625 C2.7675 1.7125 3.0975 3.3625 3.4375 5.0625 C2.7775 5.0625 2.1175 5.0625 1.4375 5.0625 C1.1075 4.4025 0.7775 3.7425 0.4375 3.0625 C-0.26761719 3.38992187 -0.97273437 3.71734375 -1.69921875 4.0546875 C-4.80117167 5.14650722 -7.10256053 5.26635396 -10.375 5.1875 C-11.83873047 5.16042969 -11.83873047 5.16042969 -13.33203125 5.1328125 C-14.06808594 5.10960937 -14.80414063 5.08640625 -15.5625 5.0625 C-15.2325 4.4025 -14.9025 3.7425 -14.5625 3.0625 C-12.09375 2.46484375 -12.09375 2.46484375 -9.0625 2 C-5.78353781 1.48871852 -3.07030245 0.07488543 0 0 Z " fill="#1F4D79" transform="translate(234.5625,218.9375)"/>
<path d="M0 0 C0.66 0 1.32 0 2 0 C2 0.66 2 1.32 2 2 C2.99 2.33 3.98 2.66 5 3 C5 3.66 5 4.32 5 5 C5.66 5 6.32 5 7 5 C7 5.66 7 6.32 7 7 C7.99 7.33 8.98 7.66 10 8 C10.99 9.485 10.99 9.485 12 11 C7.01767779 9.72545246 4.29731516 7.95677819 1 4 C0.1875 1.6875 0.1875 1.6875 0 0 Z " fill="#144977" transform="translate(170,203)"/>
<path d="M0 0 C0.33 0 0.66 0 1 0 C1.08636719 0.58007812 1.17273438 1.16015625 1.26171875 1.7578125 C2.31816034 7.63124007 3.8337532 10.73213742 8 15 C8.8971875 15.928125 8.8971875 15.928125 9.8125 16.875 C10.204375 17.24625 10.59625 17.6175 11 18 C8.0369753 17.36506614 5.48420645 16.76298522 3 15 C0.07290561 9.77304573 -0.31246933 5.9369172 0 0 Z " fill="#1E326C" transform="translate(132,260)"/>
<path d="M0 0 C0.66 0.33 1.32 0.66 2 1 C1.67 1.66 1.34 2.32 1 3 C0.34 3 -0.32 3 -1 3 C-1.33 4.65 -1.66 6.3 -2 8 C-2.66 8 -3.32 8 -4 8 C-4 8.66 -4 9.32 -4 10 C-4.66 10 -5.32 10 -6 10 C-6.66 11.65 -7.32 13.3 -8 15 C-8.75 13.3125 -8.75 13.3125 -9 11 C-7.21482174 8.35301155 -5.87978754 6.43989377 -3 5 C-2.835 4.34 -2.67 3.68 -2.5 3 C-2.335 2.34 -2.17 1.68 -2 1 C-1.34 0.67 -0.68 0.34 0 0 Z " fill="#1D5282" transform="translate(316,235)"/>
<path d="M0 0 C1.32 0 2.64 0 4 0 C4 1.98 4 3.96 4 6 C1.69 6.66 -0.62 7.32 -3 8 C-2.45276317 4.62537285 -1.9451 2.91765 0 0 Z " fill="#0F71AD" transform="translate(109,104)"/>
<path d="M0 0 C1.65 0 3.3 0 5 0 C5.68707555 2.49064888 6 4.37886292 6 7 C7.43990623 9.17032476 7.43990623 9.17032476 9 11 C8.67 11.66 8.34 12.32 8 13 C4.15383526 8.91193811 1.36410449 5.59282842 0 0 Z " fill="#197AB1" transform="translate(199,59)"/>
<path d="M0 0 C0 3.6136481 -0.97096143 4.90834772 -2.875 7.9375 C-4.7297854 10.90784474 -6.489209 13.8390732 -8 17 C-9 14 -9 14 -8.3984375 12.16796875 C-6.03322233 7.59100656 -3.44898354 3.83220394 0 0 Z " fill="#1F8CAB" transform="translate(208,24)"/>
<path d="M0 0 C0.66 0 1.32 0 2 0 C2.12375 0.969375 2.2475 1.93875 2.375 2.9375 C2.684375 4.4534375 2.684375 4.4534375 3 6 C3.66 6.33 4.32 6.66 5 7 C4.67 7.66 4.34 8.32 4 9 C4.99 9.33 5.98 9.66 7 10 C7 11.32 7 12.64 7 14 C7.66 14 8.32 14 9 14 C9 14.66 9 15.32 9 16 C5.125 14.25 5.125 14.25 4 12 C3.855625 11.154375 3.71125 10.30875 3.5625 9.4375 C3.2840625 8.2309375 3.2840625 8.2309375 3 7 C2.34 6.67 1.68 6.34 1 6 C0.27840576 4.35636866 -0.39351421 2.68949614 -1 1 C-0.67 0.67 -0.34 0.34 0 0 Z " fill="#0E416D" transform="translate(161,187)"/>
<path d="M0 0 C0.61875 0.804375 1.2375 1.60875 1.875 2.4375 C3.74164041 5.03874519 3.74164041 5.03874519 6 6 C6 6.99 6 7.98 6 9 C6.66 9 7.32 9 8 9 C8 9.66 8 10.32 8 11 C7.01 11 6.02 11 5 11 C5 10.34 5 9.68 5 9 C4.38125 8.731875 3.7625 8.46375 3.125 8.1875 C1 7 1 7 -1 4 C-0.625 1.8125 -0.625 1.8125 0 0 Z " fill="#133A6B" transform="translate(122,225)"/>
<path d="M0 0 C0.66 0 1.32 0 2 0 C1.5625 2.8125 1.5625 2.8125 0 6 C-2.89403604 7.44437265 -5.85835465 8.26307084 -9 9 C-9 8.34 -9 7.68 -9 7 C-7.5390625 5.7109375 -7.5390625 5.7109375 -5.625 4.375 C-4.99851562 3.92898437 -4.37203125 3.48296875 -3.7265625 3.0234375 C-2 2 -2 2 0 2 C0 1.34 0 0.68 0 0 Z " fill="#214579" transform="translate(280,252)"/>
<path d="M0 0 C1.98 0.66 3.96 1.32 6 2 C6 2.66 6 3.32 6 4 C6.7425 4.2475 7.485 4.495 8.25 4.75 C11.20124062 6.09147301 12.84814974 7.60905526 15 10 C14.01 10.495 14.01 10.495 13 11 C13 10.34 13 9.68 13 9 C11.35 8.67 9.7 8.34 8 8 C8 7.34 8 6.68 8 6 C7.236875 5.7525 6.47375 5.505 5.6875 5.25 C2.7635955 3.89004442 1.69995644 2.68414174 0 0 Z " fill="#1A4471" transform="translate(166,220)"/>
<path d="M0 0 C2.97 0 5.94 0 9 0 C10.33332095 2.6666419 9.67102033 4.16680303 9 7 C8.34 6.67 7.68 6.34 7 6 C7 5.01 7 4.02 7 3 C5.824375 3.0928125 5.824375 3.0928125 4.625 3.1875 C3.75875 3.125625 2.8925 3.06375 2 3 C1.34 2.01 0.68 1.02 0 0 Z " fill="#1F5884" transform="translate(317,217)"/>
<path d="M0 0 C0.99 0.33 1.98 0.66 3 1 C2.01 1.33 1.02 1.66 0 2 C0 2.99 0 3.98 0 5 C-1.31787285 6.02028865 -2.65210653 7.01971384 -4 8 C-4.33 8.99 -4.66 9.98 -5 11 C-5.66 11 -6.32 11 -7 11 C-7.33 11.99 -7.66 12.98 -8 14 C-8.56465362 10.16035537 -8.05627386 9.07604576 -5.6875 5.875 C-1.71 1.62 -1.71 1.62 0 0 Z " fill="#15698F" transform="translate(175,124)"/>
<path d="M0 0 C1.32 0 2.64 0 4 0 C5.703125 1.75 5.703125 1.75 7.25 4 C8.03117187 5.11375 8.03117187 5.11375 8.828125 6.25 C9.21484375 6.8275 9.6015625 7.405 10 8 C9.67 8.66 9.34 9.32 9 10 C8.1028125 9.2884375 8.1028125 9.2884375 7.1875 8.5625 C4.99617076 6.83534256 4.99617076 6.83534256 2 6 C1.375 4.0625 1.375 4.0625 1 2 C0.67 1.34 0.34 0.68 0 0 Z " fill="#1582B0" transform="translate(304,85)"/>
<path d="M0 0 C0.66 0 1.32 0 2 0 C2 0.66 2 1.32 2 2 C2.66 2 3.32 2 4 2 C4.66 4.31 5.32 6.62 6 9 C5.01 9.33 4.02 9.66 3 10 C2.34 9.67 1.68 9.34 1 9 C1.33 7.35 1.66 5.7 2 4 C1.34 4 0.68 4 0 4 C0 2.68 0 1.36 0 0 Z " fill="#1380A7" transform="translate(322,110)"/>
<path d="M0 0 C0 0.66 0 1.32 0 2 C-0.58007812 1.96519531 -1.16015625 1.93039063 -1.7578125 1.89453125 C-7.009134 1.71255476 -10.39511219 2.16622289 -15 5 C-14.3125 2.5625 -14.3125 2.5625 -13 0 C-8.76866406 -1.7423148 -4.39778267 -0.6708482 0 0 Z " fill="#206C96" transform="translate(258,107)"/>
<path d="M0 0 C-0.22265625 1.88671875 -0.22265625 1.88671875 -1 4 C-2.99609375 5.08203125 -2.99609375 5.08203125 -5.4375 5.8125 C-6.24058594 6.06644531 -7.04367188 6.32039063 -7.87109375 6.58203125 C-10 7 -10 7 -12 6 C-10.37829621 4.99466333 -8.75252763 3.99588093 -7.125 3 C-5.76761719 2.1646875 -5.76761719 2.1646875 -4.3828125 1.3125 C-2 0 -2 0 0 0 Z " fill="#1E7CA7" transform="translate(158,57)"/>
<path d="M0 0 C4.68520915 1.21815438 8.70543612 2.69559987 13 5 C9.30962722 6.37095624 7.29116165 5.60010967 3.75 4.0625 C2.85796875 3.68222656 1.9659375 3.30195313 1.046875 2.91015625 C0.37140625 2.60980469 -0.3040625 2.30945313 -1 2 C-0.67 1.34 -0.34 0.68 0 0 Z " fill="#204E79" transform="translate(183,230)"/>
<path d="M0 0 C0.763125 0.804375 1.52625 1.60875 2.3125 2.4375 C4.79430898 5.16799024 4.79430898 5.16799024 8 6 C8.33 6.99 8.66 7.98 9 9 C8.01 9.66 7.02 10.32 6 11 C4.9944239 9.54550599 3.99569565 8.08627557 3 6.625 C2.443125 5.81289062 1.88625 5.00078125 1.3125 4.1640625 C0 2 0 2 0 0 Z " fill="#1C6EAC" transform="translate(302,103)"/>
<path d="M0 0 C3.491933 0.64665426 6.15389899 1.86542424 9 4 C9 5.32 9 6.64 9 8 C5.18284914 6.44486447 2.77292558 4.00400272 0 1 C0 0.67 0 0.34 0 0 Z " fill="#1F4674" transform="translate(119,248)"/>
<path d="M0 0 C1.32 0.33 2.64 0.66 4 1 C4 1.66 4 2.32 4 3 C4.66 3 5.32 3 6 3 C6 3.99 6 4.98 6 6 C4.35 6 2.7 6 1 6 C0.4465236 3.92446352 0 2.15634036 0 0 Z " fill="#145291" transform="translate(106,201)"/>
<path d="M0 0 C2.02045442 0.60183749 4.02111039 1.27306096 6 2 C6.33 2.66 6.66 3.32 7 4 C8.65 4 10.3 4 12 4 C11.67 4.99 11.34 5.98 11 7 C5.95904225 6.55520961 3.58884285 4.33845847 0 1 C0 0.67 0 0.34 0 0 Z " fill="#1C7FA8" transform="translate(208,72)"/>
<path d="M0 0 C-3.3 0.66 -6.6 1.32 -10 2 C-10 2.66 -10 3.32 -10 4 C-11.32 4.33 -12.64 4.66 -14 5 C-13 2 -13 2 -11.07421875 0.76171875 C-10.28660156 0.40722656 -9.49898437 0.05273438 -8.6875 -0.3125 C-7.90761719 -0.67988281 -7.12773437 -1.04726562 -6.32421875 -1.42578125 C-4 -2 -4 -2 0 0 Z " fill="#185276" transform="translate(151,152)"/>
<path d="M0 0 C0.78375 0.04125 1.5675 0.0825 2.375 0.125 C2.705 1.115 3.035 2.105 3.375 3.125 C1.951875 3.558125 1.951875 3.558125 0.5 4 C-2.67711578 4.89325109 -2.67711578 4.89325109 -4.625 7.125 C-4.75 4.75 -4.75 4.75 -4.625 2.125 C-2.625 0.125 -2.625 0.125 0 0 Z " fill="#080808" transform="translate(286.625,141.875)"/>
<path d="M0 0 C0 3.96018245 -1.18721244 6.5039097 -3 10 C-5.1875 10.9375 -5.1875 10.9375 -7 11 C-5.5140084 6.40693504 -3.14985318 3.56430755 0 0 Z " fill="#1D6B96" transform="translate(115,92)"/>
<path d="M0 0 C0.66 0 1.32 0 2 0 C1.47731534 2.76276177 0.89130413 5.3260876 0 8 C-0.99 7.67 -1.98 7.34 -3 7 C-3.33 6.34 -3.66 5.68 -4 5 C-2 2 -2 2 0 0 Z " fill="#1783B6" transform="translate(261,56)"/>
<path d="M0 0 C0.33 0.99 0.66 1.98 1 3 C1.66 3.33 2.32 3.66 3 4 C3 5.32 3 6.64 3 8 C1.68 8.33 0.36 8.66 -1 9 C-1 5.88772805 -0.54372951 3.05847848 0 0 Z " fill="#113F65" transform="translate(239,226)"/>
<path d="M0 0 C0.99 0.33 1.98 0.66 3 1 C0.01353231 2.99097846 -2.59687262 3.94124926 -6 5 C-6 5.66 -6 6.32 -6 7 C-7.32 6.67 -8.64 6.34 -10 6 C-8.70903219 5.18639005 -7.41720125 4.37414954 -6.125 3.5625 C-5.04605469 2.88380859 -5.04605469 2.88380859 -3.9453125 2.19140625 C-2 1 -2 1 0 0 Z " fill="#208BA9" transform="translate(219,17)"/>
<path d="M0 0 C1.32 0.33 2.64 0.66 4 1 C4 1.66 4 2.32 4 3 C4.66 3 5.32 3 6 3 C6 3.66 6 4.32 6 5 C6.99 5 7.98 5 9 5 C8.67 6.32 8.34 7.64 8 9 C6.2925002 7.71937515 4.62626404 6.38232443 3 5 C3 4.34 3 3.68 3 3 C2.01 2.67 1.02 2.34 0 2 C0 1.34 0 0.68 0 0 Z " fill="#173165" transform="translate(152,249)"/>
<path d="M0 0 C2.3125 1.5625 2.3125 1.5625 4 3 C0.16774573 3.08912219 -3.26562152 2.87867729 -7 2 C-7 1.34 -7 0.68 -7 0 C-4.25700998 -1.37149501 -2.91518346 -0.83290956 0 0 Z " fill="#196096" transform="translate(318,218)"/>
<path d="M0 0 C1 2 1 2 0.6875 4.0625 C0 6 0 6 -2 7 C-2.72159424 8.64363134 -3.39351421 10.31050386 -4 12 C-4.66 12 -5.32 12 -6 12 C-4.68139111 7.38486888 -2.78644563 3.90102388 0 0 Z " fill="#1D6189" transform="translate(155,126)"/>
<path d="M0 0 C0.8125 1.6875 0.8125 1.6875 1 4 C-1.3125 6.75 -1.3125 6.75 -4 9 C-4.66 9 -5.32 9 -6 9 C-5.34 7.35 -4.68 5.7 -4 4 C-3.34 4 -2.68 4 -2 4 C-2 3.34 -2 2.68 -2 2 C-1.34 2 -0.68 2 0 2 C0 1.34 0 0.68 0 0 Z " fill="#18658B" transform="translate(162,117)"/>
<path d="M0 0 C6.15234375 -0.09765625 6.15234375 -0.09765625 8 0 C8.33 0.33 8.66 0.66 9 1 C11.32817964 1.36760731 13.6618385 1.70241581 16 2 C16 2.33 16 2.66 16 3 C10.22192976 3.2358396 5.48675196 2.86783046 0 1 C0 0.67 0 0.34 0 0 Z " fill="#257FA6" transform="translate(219,79)"/>
<path d="M0 0 C1.22963633 3.68890899 1.55670401 7.13699206 2 11 C1.01 11.33 0.02 11.66 -1 12 C-1.92470553 7.28400182 -2.22923777 4.32734391 0 0 Z " fill="#17789D" transform="translate(183,51)"/>
<path d="M0 0 C1.51400391 0.01740234 1.51400391 0.01740234 3.05859375 0.03515625 C4.07050781 0.04417969 5.08242187 0.05320313 6.125 0.0625 C7.29869141 0.07990234 7.29869141 0.07990234 8.49609375 0.09765625 C8.49609375 0.75765625 8.49609375 1.41765625 8.49609375 2.09765625 C-0.07533482 3.52622768 -0.07533482 3.52622768 -3.50390625 1.09765625 C-2.50390625 0.09765625 -2.50390625 0.09765625 0 0 Z " fill="#173E75" transform="translate(143.50390625,248.90234375)"/>
<path d="M0 0 C1.3271261 3.9813783 1.06915913 7.85045227 1 12 C0.34 12 -0.32 12 -1 12 C-1.66 9.03 -2.32 6.06 -3 3 C-2.34 3 -1.68 3 -1 3 C-0.67 2.01 -0.34 1.02 0 0 Z " fill="#225678" transform="translate(243,214)"/>
<path d="M0 0 C1.32 0.66 2.64 1.32 4 2 C3.01 2.495 3.01 2.495 2 3 C1.67 3.99 1.34 4.98 1 6 C0.34 6 -0.32 6 -1 6 C-1 6.99 -1 7.98 -1 9 C-1.66 9 -2.32 9 -3 9 C-2.25 3.25 -2.25 3.25 0 1 C0 0.67 0 0.34 0 0 Z " fill="#146186" transform="translate(122,104)"/>
<path d="M0 0 C0.66 0.33 1.32 0.66 2 1 C2 2.65 2 4.3 2 6 C1.01 6.33 0.02 6.66 -1 7 C-1 6.34 -1 5.68 -1 5 C-1.66 5 -2.32 5 -3 5 C-3 4.01 -3 3.02 -3 2 C-2.01 1.34 -1.02 0.68 0 0 Z " fill="#0A7DAE" transform="translate(126,81)"/>
<path d="M0 0 C7.38461538 -0.36923077 7.38461538 -0.36923077 10.5 1.5 C10.995 1.995 11.49 2.49 12 3 C8.52128379 4.15957207 7.65780355 3.77456651 4.3125 2.5625 C3.50425781 2.27503906 2.69601563 1.98757813 1.86328125 1.69140625 C1.24839844 1.46324219 0.63351563 1.23507812 0 1 C0 0.67 0 0.34 0 0 Z " fill="#21396F" transform="translate(163,281)"/>
<path d="M0 0 C2.97 0.99 5.94 1.98 9 3 C8.01 4.485 8.01 4.485 7 6 C3.75728494 5.4409112 2.06942576 4.5867822 0 2 C0 1.34 0 0.68 0 0 Z " fill="#13496F" transform="translate(182,214)"/>
<path d="M0 0 C4.51478398 0.53115106 7.34666857 2.36620292 11 5 C10.34 5.66 9.68 6.32 9 7 C8.67 6.01 8.34 5.02 8 4 C5.03 3.505 5.03 3.505 2 3 C2 2.34 2 1.68 2 1 C1.34 0.67 0.68 0.34 0 0 Z " fill="#196489" transform="translate(151,151)"/>
<path d="M0 0 C0.66 0 1.32 0 2 0 C2.144375 0.78375 2.28875 1.5675 2.4375 2.375 C2.87798925 4.96421018 2.87798925 4.96421018 4 7 C3.34 7 2.68 7 2 7 C1.67 7.99 1.34 8.98 1 10 C-0.60725635 6.78548731 -0.05748185 3.56387464 0 0 Z " fill="#175D91" transform="translate(91,144)"/>
<path d="M0 0 C0.99 0.33 1.98 0.66 3 1 C3 2.32 3 3.64 3 5 C3.66 5 4.32 5 5 5 C5 5.99 5 6.98 5 8 C2 7 2 7 0 5 C-0.125 2.375 -0.125 2.375 0 0 Z " fill="#143C77" transform="translate(116,216)"/>
<path d="M0 0 C1.65 0 3.3 0 5 0 C4.67 0.99 4.34 1.98 4 3 C0.9375 4.1875 0.9375 4.1875 -2 5 C-2 4.01 -2 3.02 -2 2 C-1.34 2 -0.68 2 0 2 C0 1.34 0 0.68 0 0 Z " fill="#0E5E92" transform="translate(156,183)"/>
<path d="M0 0 C0.66 0.66 1.32 1.32 2 2 C-0.64 4.31 -3.28 6.62 -6 9 C-6.66 8.67 -7.32 8.34 -8 8 C-5.36 5.36 -2.72 2.72 0 0 Z " fill="#1A6F92" transform="translate(131,74)"/>
<path d="M0 0 C1.5 1.375 1.5 1.375 3 3 C3 3.66 3 4.32 3 5 C3.99 5.33 4.98 5.66 6 6 C6 6.66 6 7.32 6 8 C5.34 8 4.68 8 4 8 C4 7.34 4 6.68 4 6 C3.01 6 2.02 6 1 6 C1 5.34 1 4.68 1 4 C0.34 4 -0.32 4 -1 4 C-0.67 2.68 -0.34 1.36 0 0 Z " fill="#167DA4" transform="translate(274,73)"/>
<path d="M0 0 C-1.12073862 0.83905565 -2.24674547 1.67107831 -3.375 2.5 C-4.00148437 2.9640625 -4.62796875 3.428125 -5.2734375 3.90625 C-7 5 -7 5 -9 5 C-8.8125 3.125 -8.8125 3.125 -8 1 C-4.70594381 -0.82039948 -3.63772813 -1.21257604 0 0 Z " fill="#20709E" transform="translate(188,118)"/>
<path d="M0 0 C0.66 0.33 1.32 0.66 2 1 C1.67 1.99 1.34 2.98 1 4 C0.34 4 -0.32 4 -1 4 C-1 4.66 -1 5.32 -1 6 C-1.99 6.33 -2.98 6.66 -4 7 C-3.67 5.68 -3.34 4.36 -3 3 C-2.34 3 -1.68 3 -1 3 C-0.67 2.01 -0.34 1.02 0 0 Z " fill="#14426F" transform="translate(301,253)"/>
<path d="M0 0 C0.33 0 0.66 0 1 0 C1.125 7.625 1.125 7.625 0 11 C-0.66 11 -1.32 11 -2 11 C-2 9.35 -2 7.7 -2 6 C-1.34 6 -0.68 6 0 6 C0 4.02 0 2.04 0 0 Z " fill="#1C4260" transform="translate(256,216)"/>
<path d="M0 0 C0.99 0 1.98 0 3 0 C2.34 2.31 1.68 4.62 1 7 C0.01 7 -0.98 7 -2 7 C-1.34 4.69 -0.68 2.38 0 0 Z " fill="#1B5B81" transform="translate(162,140)"/>
<path d="M0 0 C-1.9626228 2.04795423 -3.4277307 2.94976638 -6.26953125 3.19921875 C-8.51954383 3.18858877 -10.75385562 3.12958525 -13 3 C-8.72352613 0.14901742 -5.0682068 -0.14480591 0 0 Z " fill="#25779D" transform="translate(205,97)"/>
<path d="M0 0 C2.475 0.99 2.475 0.99 5 2 C5 2.66 5 3.32 5 4 C3.02 4.99 3.02 4.99 1 6 C0.34 5.34 -0.32 4.68 -1 4 C-0.34 4 0.32 4 1 4 C0.67 2.68 0.34 1.36 0 0 Z " fill="#1588B0" transform="translate(287,68)"/>
<path d="M0 0 C1.5 1.375 1.5 1.375 3 3 C3 3.66 3 4.32 3 5 C3.66 5 4.32 5 5 5 C4.67 6.32 4.34 7.64 4 9 C0 4.5 0 4.5 0 0 Z " fill="#0886BD" transform="translate(203,61)"/>
<path d="M0 0 C0.33 0.66 0.66 1.32 1 2 C-1.55068845 4.35448165 -2.71017358 4.98327924 -6.25 5.1875 C-7.1575 5.125625 -8.065 5.06375 -9 5 C-7.68 4.67 -6.36 4.34 -5 4 C-5 3.34 -5 2.68 -5 2 C-3.35 1.34 -1.7 0.68 0 0 Z " fill="#274B77" transform="translate(266,262)"/>
<path d="M0 0 C0.66 0.66 1.32 1.32 2 2 C1.34 4.31 0.68 6.62 0 9 C-0.66 9 -1.32 9 -2 9 C-2.125 5.625 -2.125 5.625 -2 2 C-1.34 1.34 -0.68 0.68 0 0 Z " fill="#1B6487" transform="translate(107,140)"/>
<path d="M0 0 C0.625 1.8125 0.625 1.8125 1 4 C0.01 5.485 0.01 5.485 -1 7 C-1.66 7 -2.32 7 -3 7 C-2.25 2.25 -2.25 2.25 0 0 Z " fill="#0979B4" transform="translate(121,87)"/>
<path d="M0 0 C4 1 4 1 4 1 Z " fill="#000000" transform="translate(208,142)"/>
<path d="" fill="#000080" transform="translate(0,0)"/>
</svg>
