<svg version="1.1" id="Layer_1" xmlns="http://www.w3.org/2000/svg" xmlns:xlink="http://www.w3.org/1999/xlink" x="0px" y="0px"
	 width="100%" viewBox="0 0 564 528" enable-background="new 0 0 564 528" xml:space="preserve">
<path fill="#FFFFFF" opacity="1.000000" stroke="none" 
	d="
M387.000000,529.000000 
	C258.029388,529.000000 129.558792,529.000000 1.044094,529.000000 
	C1.044094,353.069672 1.044094,177.139328 1.044094,1.104487 
	C188.887283,1.104487 376.774628,1.104487 564.830994,1.104487 
	C564.830994,176.999863 564.830994,352.999908 564.830994,529.000000 
	C505.805939,529.000000 446.652985,529.000000 387.000000,529.000000 
M279.947449,371.166107 
	C272.472778,366.497070 265.115784,361.622192 257.470337,357.251953 
	C254.011734,355.274933 252.826340,353.052307 252.831818,349.058807 
	C252.955795,258.757599 252.927994,168.456238 252.928757,78.154884 
	C252.928772,76.406586 252.928787,74.658279 252.928787,71.908165 
	C242.095383,80.152763 232.041245,87.722641 222.134323,95.480522 
	C221.225159,96.192467 220.930450,98.099930 220.906464,99.462051 
	C220.786194,106.290848 220.850952,113.122910 220.850967,119.953819 
	C220.851212,202.924438 220.851318,285.895050 220.852722,368.865662 
	C220.852768,371.480865 220.606583,373.791748 223.600586,375.633118 
	C242.300201,387.133881 260.860382,398.862671 279.391418,410.634521 
	C281.857269,412.200958 283.625519,412.123474 286.088379,410.551117 
	C302.208862,400.259399 318.141327,389.612457 334.770416,380.204285 
	C342.817291,375.651672 345.093719,370.431183 345.053833,361.413727 
	C344.670227,274.612823 344.831329,187.809540 344.777679,101.006981 
	C344.776520,99.140831 344.737152,96.455551 343.598694,95.537704 
	C333.701477,87.558296 323.548584,79.895950 312.794495,71.618004 
	C312.794495,74.587090 312.794525,76.554550 312.794495,78.522011 
	C312.794159,168.656693 312.768341,258.791412 312.882507,348.925934 
	C312.887299,352.704254 311.909973,354.956573 308.580963,356.906525 
	C301.133331,361.268982 293.958313,366.096893 285.952057,370.900330 
	C284.088287,371.170532 282.224518,371.440704 279.947449,371.166107 
M112.283600,178.801163 
	C109.505875,180.925110 106.523125,182.838013 104.032509,185.257507 
	C102.683731,186.567780 101.407509,188.738632 101.399574,190.527054 
	C101.244217,225.516235 101.239647,260.506439 101.400742,295.495514 
	C101.408653,297.214264 102.781418,299.567352 104.241119,300.533569 
	C112.974022,306.314056 121.911659,311.785950 130.804138,317.323608 
	C131.680313,317.869202 132.715317,318.159729 134.163696,318.775879 
	C134.163696,297.670990 134.163696,277.149811 134.163696,256.628632 
	C135.250351,257.657257 135.745331,258.817932 136.194855,259.996002 
	C145.844406,285.284698 155.475555,310.580444 165.164719,335.853943 
	C165.801651,337.515320 166.477875,339.617828 167.807571,340.484802 
	C177.922104,347.079132 188.203995,353.416748 198.794174,360.060425 
	C198.794174,277.447845 198.794174,195.469620 198.794174,112.813278 
	C188.931763,120.328522 179.641922,127.554474 170.167709,134.530045 
	C167.597687,136.422272 166.712845,138.421768 166.723633,141.582031 
	C166.837967,175.071915 166.793472,208.562363 166.776505,242.052643 
	C166.775833,243.374542 166.612671,244.696350 166.525223,246.018219 
	C166.253067,246.030075 165.980896,246.041931 165.708740,246.053787 
	C155.125793,218.314514 144.542847,190.575226 133.798874,162.413910 
	C126.560890,167.915985 119.699593,173.131699 112.283600,178.801163 
M366.013580,159.500000 
	C366.013580,228.558777 366.013580,297.617554 366.013580,367.542847 
	C376.130798,361.277222 385.480377,355.344513 394.991394,349.682892 
	C397.880554,347.962952 399.036255,346.093018 399.014252,342.607391 
	C398.845215,315.788239 398.920990,288.967560 398.920807,262.147339 
	C398.920807,260.378082 398.920837,258.608856 398.920837,256.403717 
	C407.653839,256.403717 415.744629,256.403717 423.760773,256.403717 
	C423.760773,243.714935 423.760773,231.471008 423.760773,218.807404 
	C415.373749,218.807404 407.289642,218.807404 399.167877,218.807404 
	C399.167877,205.826065 399.167877,193.272141 399.167877,179.928024 
	C410.612335,188.121826 421.558472,195.868729 432.346710,203.829636 
	C433.366791,204.582382 433.786621,206.670944 433.817444,208.153244 
	C433.965515,215.268661 433.883972,222.388855 433.883972,229.735184 
	C445.264313,229.735184 456.174438,229.735184 467.393921,229.735184 
	C467.481415,228.132538 467.628082,226.675003 467.630127,225.217285 
	C467.648102,212.223679 467.548035,199.228851 467.710114,186.237244 
	C467.747375,183.250885 466.821869,181.446014 464.385193,179.688156 
	C440.228271,162.260803 416.171295,144.695007 392.077942,127.179550 
	C383.659210,121.059288 375.217957,114.970039 366.013580,108.306732 
	C366.013580,125.678680 366.013580,142.089340 366.013580,159.500000 
z"/>
<path fill="#030303" opacity="1.000000" stroke="none" 
	d="
M286.672272,370.735229 
	C293.958313,366.096893 301.133331,361.268982 308.580963,356.906525 
	C311.909973,354.956573 312.887299,352.704254 312.882507,348.925934 
	C312.768341,258.791412 312.794159,168.656693 312.794495,78.522011 
	C312.794525,76.554550 312.794495,74.587090 312.794495,71.618004 
	C323.548584,79.895950 333.701477,87.558296 343.598694,95.537704 
	C344.737152,96.455551 344.776520,99.140831 344.777679,101.006981 
	C344.831329,187.809540 344.670227,274.612823 345.053833,361.413727 
	C345.093719,370.431183 342.817291,375.651672 334.770416,380.204285 
	C318.141327,389.612457 302.208862,400.259399 286.088379,410.551117 
	C283.625519,412.123474 281.857269,412.200958 279.391418,410.634521 
	C260.860382,398.862671 242.300201,387.133881 223.600586,375.633118 
	C220.606583,373.791748 220.852768,371.480865 220.852722,368.865662 
	C220.851318,285.895050 220.851212,202.924438 220.850967,119.953819 
	C220.850952,113.122910 220.786194,106.290848 220.906464,99.462051 
	C220.930450,98.099930 221.225159,96.192467 222.134323,95.480522 
	C232.041245,87.722641 242.095383,80.152763 252.928787,71.908165 
	C252.928787,74.658279 252.928772,76.406586 252.928757,78.154884 
	C252.927994,168.456238 252.955795,258.757599 252.831818,349.058807 
	C252.826340,353.052307 254.011734,355.274933 257.470337,357.251953 
	C265.115784,361.622192 272.472778,366.497070 280.043579,371.783813 
	C281.196533,373.108887 282.253357,373.816254 282.759064,374.154785 
	C281.979919,376.086029 281.074097,378.331207 280.168274,380.576355 
	C282.370575,381.349304 284.572906,382.122223 288.044586,383.340637 
	C287.475830,378.116364 287.074066,374.425812 286.672272,370.735229 
z"/>
<path fill="#030303" opacity="1.000000" stroke="none" 
	d="
M112.560944,178.574295 
	C119.699593,173.131699 126.560890,167.915985 133.798874,162.413910 
	C144.542847,190.575226 155.125793,218.314514 165.708740,246.053787 
	C165.980896,246.041931 166.253067,246.030075 166.525223,246.018219 
	C166.612671,244.696350 166.775833,243.374542 166.776505,242.052643 
	C166.793472,208.562363 166.837967,175.071915 166.723633,141.582031 
	C166.712845,138.421768 167.597687,136.422272 170.167709,134.530045 
	C179.641922,127.554474 188.931763,120.328522 198.794174,112.813278 
	C198.794174,195.469620 198.794174,277.447845 198.794174,360.060425 
	C188.203995,353.416748 177.922104,347.079132 167.807571,340.484802 
	C166.477875,339.617828 165.801651,337.515320 165.164719,335.853943 
	C155.475555,310.580444 145.844406,285.284698 136.194855,259.996002 
	C135.745331,258.817932 135.250351,257.657257 134.163696,256.628632 
	C134.163696,277.149811 134.163696,297.670990 134.163696,318.775879 
	C132.715317,318.159729 131.680313,317.869202 130.804138,317.323608 
	C121.911659,311.785950 112.974022,306.314056 104.241119,300.533569 
	C102.781418,299.567352 101.408653,297.214264 101.400742,295.495514 
	C101.239647,260.506439 101.244217,225.516235 101.399574,190.527054 
	C101.407509,188.738632 102.683731,186.567780 104.032509,185.257507 
	C106.523125,182.838013 109.505875,180.925110 112.560944,178.574295 
M125.113068,246.610275 
	C126.872826,246.696579 128.632599,246.782867 130.830597,246.890656 
	C130.830597,243.372253 131.312500,240.138412 130.603409,237.191101 
	C130.301956,235.938126 127.506203,235.285248 125.844017,234.359650 
	C125.472496,235.804428 125.055519,237.239624 124.748749,238.698029 
	C124.597023,239.419327 124.636841,240.182922 124.610191,240.928101 
	C124.548798,242.644562 124.499763,244.361465 125.113068,246.610275 
z"/>
<path fill="#030303" opacity="1.000000" stroke="none" 
	d="
M366.013580,159.000000 
	C366.013580,142.089340 366.013580,125.678680 366.013580,108.306732 
	C375.217957,114.970039 383.659210,121.059288 392.077942,127.179550 
	C416.171295,144.695007 440.228271,162.260803 464.385193,179.688156 
	C466.821869,181.446014 467.747375,183.250885 467.710114,186.237244 
	C467.548035,199.228851 467.648102,212.223679 467.630127,225.217285 
	C467.628082,226.675003 467.481415,228.132538 467.393921,229.735184 
	C456.174438,229.735184 445.264313,229.735184 433.883972,229.735184 
	C433.883972,222.388855 433.965515,215.268661 433.817444,208.153244 
	C433.786621,206.670944 433.366791,204.582382 432.346710,203.829636 
	C421.558472,195.868729 410.612335,188.121826 399.167877,179.928024 
	C399.167877,193.272141 399.167877,205.826065 399.167877,218.807404 
	C407.289642,218.807404 415.373749,218.807404 423.760773,218.807404 
	C423.760773,231.471008 423.760773,243.714935 423.760773,256.403717 
	C415.744629,256.403717 407.653839,256.403717 398.920837,256.403717 
	C398.920837,258.608856 398.920807,260.378082 398.920807,262.147339 
	C398.920990,288.967560 398.845215,315.788239 399.014252,342.607391 
	C399.036255,346.093018 397.880554,347.962952 394.991394,349.682892 
	C385.480377,355.344513 376.130798,361.277222 366.013580,367.542847 
	C366.013580,297.617554 366.013580,228.558777 366.013580,159.000000 
z"/>
<path fill="#737373" opacity="1.000000" stroke="none" 
	d="
M286.312164,370.817780 
	C287.074066,374.425812 287.475830,378.116364 288.044586,383.340637 
	C284.572906,382.122223 282.370575,381.349304 280.168274,380.576355 
	C281.074097,378.331207 281.979919,376.086029 282.759064,374.154785 
	C282.253357,373.816254 281.196533,373.108887 280.250244,372.056213 
	C282.224518,371.440704 284.088287,371.170532 286.312164,370.817780 
z"/>
<path fill="#737373" opacity="1.000000" stroke="none" 
	d="
M124.779388,246.344238 
	C124.499763,244.361465 124.548798,242.644562 124.610191,240.928101 
	C124.636841,240.182922 124.597023,239.419327 124.748749,238.698029 
	C125.055519,237.239624 125.472496,235.804428 125.844009,234.359650 
	C127.506203,235.285248 130.301956,235.938126 130.603409,237.191101 
	C131.312500,240.138412 130.830597,243.372253 130.830597,246.890656 
	C128.632599,246.782867 126.872826,246.696579 124.779388,246.344238 
z"/>
</svg>